<?xml version="1.0" encoding="UTF-8" standalone="no"?>
<!-- Created with Inkscape (http://www.inkscape.org/) -->

<svg
   xmlns:osb="http://www.openswatchbook.org/uri/2009/osb"
   xmlns:dc="http://purl.org/dc/elements/1.1/"
   xmlns:cc="http://creativecommons.org/ns#"
   xmlns:rdf="http://www.w3.org/1999/02/22-rdf-syntax-ns#"
   xmlns:svg="http://www.w3.org/2000/svg"
   xmlns="http://www.w3.org/2000/svg"
   xmlns:sodipodi="http://sodipodi.sourceforge.net/DTD/sodipodi-0.dtd"
   xmlns:inkscape="http://www.inkscape.org/namespaces/inkscape"
   width="210mm"
   height="297mm"
   viewBox="0 0 210 297"
   version="1.1"
   id="svg8"
   inkscape:version="0.92.0 r15299"
   sodipodi:docname="stikersFINAL.svg">
  <defs
     id="defs2">
    <inkscape:path-effect
       effect="spiro"
       id="path-effect6746"
       is_visible="true" />
    <inkscape:path-effect
       effect="spiro"
       id="path-effect6742"
       is_visible="true" />
    <inkscape:path-effect
       effect="spiro"
       id="path-effect6738"
       is_visible="true" />
    <inkscape:path-effect
       effect="spiro"
       id="path-effect6643"
       is_visible="true" />
    <inkscape:path-effect
       effect="spiro"
       id="path-effect6639"
       is_visible="true" />
    <inkscape:path-effect
       effect="spiro"
       id="path-effect6635"
       is_visible="true" />
    <inkscape:path-effect
       effect="spiro"
       id="path-effect6631"
       is_visible="true" />
    <inkscape:path-effect
       effect="spiro"
       id="path-effect6627"
       is_visible="true" />
    <marker
       inkscape:stockid="Arrow1Lstart"
       orient="auto"
       refY="0.0"
       refX="0.0"
       id="Arrow1Lstart"
       style="overflow:visible"
       inkscape:isstock="true">
      <path
         id="path6305"
         d="M 0.0,0.0 L 5.0,-5.0 L -12.5,0.0 L 5.0,5.0 L 0.0,0.0 z "
         style="fill-rule:evenodd;stroke:#000000;stroke-width:1.0pt"
         transform="scale(0.8) translate(12.5,0)" />
    </marker>
    <inkscape:path-effect
       effect="spiro"
       id="path-effect2322"
       is_visible="true" />
    <linearGradient
       id="linearGradient2308"
       osb:paint="solid">
      <stop
         style="stop-color:#fb0000;stop-opacity:1;"
         offset="0"
         id="stop2306" />
    </linearGradient>
    <inkscape:path-effect
       effect="spiro"
       id="path-effect830"
       is_visible="true" />
    <inkscape:path-effect
       effect="spiro"
       id="path-effect2334"
       is_visible="true" />
    <inkscape:path-effect
       effect="spiro"
       id="path-effect2354"
       is_visible="true" />
    <inkscape:path-effect
       effect="spiro"
       id="path-effect6107"
       is_visible="true" />
  </defs>
  <sodipodi:namedview
     id="base"
     pagecolor="#ffffff"
     bordercolor="#666666"
     borderopacity="1.0"
     inkscape:pageopacity="0.0"
     inkscape:pageshadow="2"
     inkscape:zoom="0.43663844"
     inkscape:cx="422.31458"
     inkscape:cy="991.64281"
     inkscape:document-units="mm"
     inkscape:current-layer="layer1"
     showgrid="false"
     showguides="true"
     inkscape:guide-bbox="true"
     inkscape:snap-bbox="true"
     inkscape:bbox-nodes="true"
     inkscape:window-width="1366"
     inkscape:window-height="705"
     inkscape:window-x="-8"
     inkscape:window-y="-8"
     inkscape:window-maximized="1"
     inkscape:snap-intersection-paths="false"
     inkscape:object-nodes="false"
     inkscape:snap-nodes="false" />
  <metadata
     id="metadata5">
    <rdf:RDF>
      <cc:Work
         rdf:about="">
        <dc:format>image/svg+xml</dc:format>
        <dc:type
           rdf:resource="http://purl.org/dc/dcmitype/StillImage" />
        <dc:title></dc:title>
      </cc:Work>
    </rdf:RDF>
  </metadata>
  <g
     inkscape:groupmode="layer"
     id="layer2"
     inkscape:label="Layer 2"
     style="display:none">
    <rect
       style="display:inline;opacity:1;fill:#ff9b00;fill-opacity:1;stroke:none;stroke-width:4.30954742;stroke-miterlimit:4;stroke-dasharray:none;stroke-opacity:1"
       id="rect2316"
       width="57"
       height="57"
       x="9.3977375"
       y="12.365875" />
    <rect
       y="12.365875"
       x="66.397736"
       height="57"
       width="57"
       id="rect6087"
       style="display:inline;opacity:1;fill:#ff9b00;fill-opacity:1;stroke:none;stroke-width:4.30954742;stroke-miterlimit:4;stroke-dasharray:none;stroke-opacity:1" />
    <rect
       style="display:inline;opacity:1;fill:#ff9b00;fill-opacity:1;stroke:none;stroke-width:4.30954742;stroke-miterlimit:4;stroke-dasharray:none;stroke-opacity:1"
       id="rect6089"
       width="57"
       height="57"
       x="123.39774"
       y="12.365875" />
    <rect
       y="12.365875"
       x="180.39774"
       height="57"
       width="57"
       id="rect6091"
       style="display:inline;opacity:1;fill:#ff9b00;fill-opacity:1;stroke:none;stroke-width:4.30954742;stroke-miterlimit:4;stroke-dasharray:none;stroke-opacity:1" />
    <rect
       style="display:inline;opacity:1;fill:#ff9b00;fill-opacity:1;stroke:none;stroke-width:4.30954742;stroke-miterlimit:4;stroke-dasharray:none;stroke-opacity:1"
       id="rect6093"
       width="57"
       height="57"
       x="66.397736"
       y="-44.634125" />
    <rect
       style="display:inline;opacity:1;fill:#ff9b00;fill-opacity:1;stroke:none;stroke-width:4.30954742;stroke-miterlimit:4;stroke-dasharray:none;stroke-opacity:1"
       id="rect6095"
       width="57"
       height="57"
       x="66.397736"
       y="69.365875" />
  </g>
  <g
     inkscape:label="Layer 1"
     inkscape:groupmode="layer"
     id="layer1"
     style="display:inline">
    <path
       style="fill:#000000;fill-opacity:1;stroke:#000000;stroke-width:0.99999994px;stroke-linecap:butt;stroke-linejoin:miter;stroke-opacity:1"
       d="m 344.67578,-163.02344 c -1.66482,3.58095 -2.57812,7.51277 -2.57812,11.46289 0,7.36122 3.14393,14.67026 8.48828,19.73243 5.44753,5.15988 12.85667,7.86531 20.29492,8.85156 5.97063,0.79165 12.01111,0.55028 18.02734,0.0742 0,-6.01361 10e-6,-12.02741 0,-18.04102 -1.97894,-0.18043 -3.93564,-0.56185 -5.82422,-1.18164 -3.91929,-1.28623 -7.53421,-3.60275 -10.13476,-6.80469 -2.05204,-2.52658 -3.4493,-5.57897 -4.02149,-8.7832 -0.31242,-1.7496 -0.36875,-3.54164 -0.19335,-5.31055 -8.01956,0 -16.03904,1e-5 -24.0586,0 z m -79.01367,7.07617 c -1.62977,0.0397 -3.25476,0.23251 -4.84766,0.58008 -1.43236,0.31254 -2.83337,0.75992 -4.1914,1.3125 0,5.03445 -10e-6,10.06907 0,15.10352 1.12308,-0.60628 2.32595,-1.06319 3.58203,-1.29688 3.88829,-0.7234 8.09122,0.52795 10.95117,3.25977 2.60825,2.49139 4.03996,6.05638 4.36719,9.64844 0.32722,3.59206 -0.38161,7.21693 -1.56836,10.62304 -1.71411,4.91967 -4.39714,9.44721 -6.59766,14.16602 6.95187,0 13.90361,-1e-5 20.85547,0 0.53097,-4.67531 1.61484,-9.31413 2.52149,-13.94531 1.3246,-6.76628 2.23938,-13.84135 0.42187,-20.49219 -1.14609,-4.19389 -3.37408,-8.08723 -6.41016,-11.19922 -3.03607,-3.11199 -6.87279,-5.43625 -11.03711,-6.68555 -2.60269,-0.7808 -5.33059,-1.14039 -8.04687,-1.07422 z m 161.26758,7.17188 c -3.62996,0.0191 -7.22535,0.75671 -10.71289,1.76367 -5.3613,1.54797 -10.57256,3.73839 -15.97071,5.05664 1e-5,6.06699 0,12.13418 0,18.20117 1.69811,-0.0501 3.39522,-0.0377 5.08594,0.13672 3.98458,0.41116 7.98521,1.68338 11.0293,4.28711 3.39607,2.9048 5.32299,7.23384 6.14258,11.62696 0.31774,1.70316 0.48334,3.42357 0.55664,5.15234 h 21.17773 c 0.13672,-0.54984 0.26724,-1.10175 0.40625,-1.65039 1.88944,-7.45735 3.92323,-15.0427 3.44336,-22.72071 -0.23994,-3.83898 -1.12642,-7.66687 -2.88867,-11.08593 -1.76225,-3.41906 -4.43068,-6.41572 -7.78906,-8.29102 -3.16937,-1.76975 -6.85052,-2.49569 -10.48047,-2.47656 z m -163.14063,57.562499 c -0.69762,4.814484 -0.41508,9.769413 0.95899,14.433594 1.93277,6.560702 6.00211,12.49936 11.52539,16.533203 6.30001,4.601126 14.26852,6.607035 22.06836,6.455078 6.42286,-0.12513 12.74091,-1.654166 18.7539,-3.955078 0,-6.100863 10e-6,-12.201875 0,-18.302734 -1.36319,0.501045 -2.73163,0.984052 -4.12695,1.384766 -2.70119,0.775737 -5.5316,1.245112 -8.32422,0.929687 -2.52123,-0.284773 -4.95711,-1.212064 -7.08008,-2.601563 -2.12297,-1.389496 -3.93506,-3.232958 -5.36328,-5.330078 -1.94337,-2.853559 -3.1424,-6.141067 -3.77148,-9.546875 -8.21359,-4e-6 -16.42703,5e-6 -24.64063,0 z m 159.00391,0 c -0.92696,20.318894 -2.21316,40.753378 -6.99219,60.472657 14.97268,2e-6 29.94532,0 44.91797,0 -10e-6,-9.802666 10e-6,-19.605548 0,-29.408204 -2.04101,-0.415673 -4.03098,-1.084774 -5.88867,-2.027343 -4.33953,-2.201814 -7.95802,-5.798621 -10.18555,-10.125 -2.4909,-4.837907 -3.21687,-10.432057 -2.91601,-15.865235 0.0564,-1.019367 0.15618,-2.034617 0.27539,-3.046875 z m -81.92969,10.138672 c -4.1641,-0.0465 -8.33759,0.500343 -12.42773,1.441407 0,5.611279 -10e-6,11.222701 0,16.833984 2.84751,-1.278646 5.73935,-2.417457 8.79101,-3.046875 2.87364,-0.592698 5.87259,-0.722798 8.73633,-0.08398 2.86374,0.638811 5.58687,2.079671 7.51758,4.289063 2.04822,2.343858 3.11285,5.447673 3.30078,8.554687 0.18793,3.107017 -0.45648,6.222728 -1.51367,9.150391 -1.67237,4.631269 -4.3387,8.820013 -6.60547,13.195313 8.64717,3e-6 17.29425,-3e-6 25.94141,0 6.4e-4,-4.853767 0.2637,-9.718945 0.1621,-14.574219 -0.1521,-7.272491 -1.22285,-14.763578 -5.00585,-20.976563 -2.35177,-3.862412 -5.69212,-7.093263 -9.53516,-9.476562 -3.84304,-2.383299 -8.17911,-3.930991 -12.63477,-4.703125 -2.22782,-0.386067 -4.47509,-0.578372 -6.72656,-0.603516 z m 3.58008,61.671875 c -2.239,9.8080479 -1.42601,20.33073794 0.85742,30.220703 2.38397,10.325423 6.2518,20.226272 9.70899,30.251953 11.29951,4e-6 22.59893,-2e-6 33.89843,0 0,-15.072198 10e-6,-30.144622 0,-45.2167964 -0.50133,-0.096446 -0.99902,-0.2089767 -1.49023,-0.3496094 -2.41207,-0.6905699 -4.677,-1.930263 -6.49609,-3.6582031 -2.03864,-1.9364581 -3.47877,-4.4421241 -4.41407,-7.0937501 -0.47707,-1.352522 -0.82578,-2.743782 -1.08789,-4.154297 -10.32555,-3e-6 -20.651,4e-6 -30.97656,0 z m 68.06641,0 c -1.30392,3.458848 -3.00596,6.731361 -5.54102,9.388672 -1.88786,1.9788933 -4.20149,3.5301946 -6.72266,4.591797 1e-5,15.497301 0,30.994861 0,46.492187 20.15759,4e-6 40.31512,0 60.47266,0 -10e-6,-20.157462 10e-6,-40.31523641 0,-60.472656 -16.06965,0 -32.1393,3e-6 -48.20898,0 z m -140.46094,7.128906 c -3.58897,-0.101538 -7.20125,0.577595 -10.5,1.998047 -1.74737,0.7524247 -3.39806,1.7197803 -4.92578,2.853516 0,7.20373148 -10e-6,14.4075912 0,21.611328 1.60702,0.137963 3.19304,0.511026 4.67578,1.146485 3.35138,1.436305 6.15078,4.12111 7.72461,7.410156 1.97785,4.133378 1.99007,8.945894 1.30468,13.476562 -0.2461,1.626889 -0.58204,3.238741 -0.93164,4.847656 6.67974,5e-6 13.35934,-3e-6 20.03907,0 1.15292,-4.359709 2.68634,-8.645721 3.98633,-12.970703 2.08307,-6.930381 3.58228,-14.325987 1.91992,-21.3691402 -1.10005,-4.6607098 -3.58982,-8.9842945 -7.07032,-12.2734376 -3.48049,-3.2891428 -7.93889,-5.5321692 -12.65429,-6.3671872 -1.17885,-0.208755 -2.37204,-0.329435 -3.56836,-0.363282 z M 58.806641,52.408203 c 0.968844,11.887545 1.224763,23.862666 2.732421,35.699219 1.068146,8.385949 2.817281,16.759778 5.50586,24.773438 6.493583,1e-5 12.98689,-1e-5 19.480469,0 -2.38319,-4.82466 -4.426563,-9.83148 -6.1875,-14.91211 C 76.1954,86.016889 73.419153,73.519584 73.070312,60.875 c -0.07779,-2.819751 -0.02457,-5.647167 0.152344,-8.466797 -4.805406,-6e-6 -9.610606,6e-6 -14.416015,0 z m 147.910159,0 c 0.0945,0.345826 0.19831,0.689357 0.28515,1.037109 0.80525,3.224426 1.21797,6.662205 0.26367,9.845704 -0.94179,3.14187 -3.19865,5.821137 -6.01757,7.498046 -2.81893,1.676912 -6.1647,2.381063 -9.44141,2.234376 -2.407,-0.107756 -4.73419,-0.665597 -6.99414,-1.476563 v 23.414063 c 5.28146,3.584613 11.54178,5.743612 17.89062,5.498042 3.99465,-0.1545 7.96712,-1.258109 11.39649,-3.312496 3.42937,-2.054386 6.30035,-5.070984 8.05273,-8.664062 1.48316,-3.041067 2.15162,-6.430044 2.33399,-9.808594 0.18237,-3.378549 -0.10823,-6.763668 -0.45899,-10.128906 -0.55847,-5.358191 -1.25631,-10.860436 -0.48828,-16.136719 -5.60747,-4e-6 -11.21479,5e-6 -16.82226,0 z m 60.73828,0 c -0.30548,4.694718 0.18792,9.444173 1.57422,13.9375 1.65218,5.355143 4.56755,10.335059 8.54492,14.283203 5.94817,5.904473 14.04149,9.302945 22.29297,10.771485 5.6777,1.010476 11.45568,1.156155 17.22851,0.919921 V 69.125 c -1.97381,0.507646 -3.94341,1.051712 -5.92578,1.501953 -2.39505,0.543973 -4.83896,0.940037 -7.29492,0.917969 -2.45596,-0.02207 -4.9335,-0.475168 -7.13672,-1.560547 -3.61961,-1.783145 -6.28016,-5.197504 -7.66797,-8.986328 -1.00335,-2.739218 -1.38074,-5.663776 -1.35742,-8.589844 -6.75264,-4e-6 -13.50516,4e-6 -20.25781,0 z m 91.04297,0 c 0.24604,1.140195 0.44278,2.288196 0.51757,3.453125 0.17987,2.801138 -0.29465,5.716312 -1.81445,8.076172 -1.51652,2.354773 -3.98502,3.998622 -6.64844,4.865234 -2.66341,0.866613 -5.51724,1.004345 -8.31054,0.798828 -4.63133,-0.340747 -9.19325,-1.587152 -13.80664,-1.884765 v 23.796875 c 2.54157,-0.204762 5.0866,-0.348902 7.6289,-0.197266 3.71091,0.221337 7.45907,1.096302 10.57422,3.125 3.88502,2.530059 6.52155,6.735254 7.63281,11.236324 0.5811,2.35368 0.76256,4.78094 0.64063,7.20313 h 18.03711 c 0.14545,-1.01181 0.30711,-2.01996 0.53125,-3.01758 0.60983,-2.71435 1.63572,-5.39149 3.41601,-7.5293 2.07622,-2.493136 5.05944,-4.09938 8.16602,-5.035152 1.25997,-0.379531 2.54823,-0.638469 3.8457,-0.853516 0,-14.679 10e-6,-29.358132 0,-44.037109 -10.13674,-2e-6 -20.2734,3e-6 -30.41015,0 z m 41.74804,0 c 1e-5,14.331973 0,28.664099 0,42.996094 0.6931,-0.01104 1.38695,-0.0081 2.08008,0.02344 2.55884,0.116269 5.12952,0.575014 7.45703,1.644532 4.10505,1.886315 7.20178,5.592481 8.96485,9.751951 0.82281,1.94121 1.36754,3.97837 1.71679,6.05664 h 40.25391 c 0,-20.157512 10e-6,-40.315184 0,-60.472654 -20.15754,0 -40.31507,4e-6 -60.47266,0 z m 71.81055,0 c 10e-6,20.15747 0,40.315143 0,60.472657 h 28.51367 c -0.62627,-2.97153 -0.7692,-6.04252 -0.34179,-9.04883 0.78864,-5.547224 3.47108,-10.824299 7.5625,-14.652342 3.50852,-3.282677 7.97032,-5.461431 12.64257,-6.582032 3.94698,-0.946646 8.04258,-1.153348 12.09571,-0.859375 -1e-5,-9.776663 0,-19.553425 0,-29.330078 -20.15749,5e-6 -40.31512,-10e-7 -60.47266,0 z m 71.81055,0 v 31.318359 c 5.89178,1.533894 11.66343,3.647266 17.46875,5.521485 8.75985,2.828078 17.98072,5.123173 27.10156,3.880859 5.4809,-0.746531 10.67222,-2.724573 15.90234,-4.580078 0,-6.552716 10e-6,-13.105491 0,-19.658203 -3.46851,0.306186 -6.94407,0.426533 -10.40625,0.09961 -5.70266,-0.538487 -11.43153,-2.373701 -15.76367,-6.121093 -3.15486,-2.729024 -5.4136,-6.440085 -6.51172,-10.460938 -9.26363,3e-6 -18.52737,-2e-6 -27.79101,-10e-7 z m -389.24414,6.234375 c -5.16261,-0.115567 -10.37115,1.302372 -14.85938,3.892578 -5.9843,3.45361 -10.70861,8.891498 -13.80078,15.070313 -1.9341,3.864754 -3.27745,8.186454 -2.75586,12.476562 0.2608,2.145054 0.99755,4.248906 2.25,6.009766 1.25246,1.76086 3.03394,3.164605 5.08594,3.841797 1.87118,0.617526 3.92667,0.618886 5.82422,0.08789 1.89755,-0.53098 3.63645,-1.581264 5.05469,-2.94921 2.8062,-2.706723 4.2662,-6.472206 5.91796,-10.003907 0.82589,-1.76585 1.72365,-3.510703 2.89063,-5.072265 1.16697,-1.561563 2.61825,-2.941546 4.35937,-3.81836 2.37578,-1.196418 5.18386,-1.385211 7.78321,-0.820312 2.59935,0.564899 5.00479,1.844757 7.13672,3.435547 1.41832,1.058322 2.71428,2.2549 3.96484,3.503906 v -18.60352 c -4.36626,-2.634221 -8.78852,-5.256816 -13.73242,-6.410156 -1.68217,-0.392426 -3.39827,-0.602102 -5.11914,-0.640625 z m 475.77343,7.708984 c -4.90823,0.02827 -9.82025,0.570387 -14.71679,1.189454 v 17.74414 c 3.32231,-0.586995 6.71859,-0.761647 10.0332,-0.1875 4.21317,0.729793 8.29557,2.741076 10.99805,6.054688 2.82346,3.461956 3.94271,8.078114 3.87304,12.544926 -0.0485,3.10821 -0.63273,6.17013 -1.42578,9.18359 8.17964,-1e-5 16.35944,0 24.53907,0 1.6694,-4.80113 2.76564,-9.78548 2.85937,-14.855469 0.13721,-7.422023 -1.99452,-15.048239 -6.82422,-20.685547 -2.80743,-3.276883 -6.44077,-5.799258 -10.38867,-7.541016 -3.9479,-1.741758 -8.20713,-2.719285 -12.5,-3.15625 -2.14643,-0.218482 -4.29615,-0.303407 -6.44727,-0.291016 z M 71.644531,124.2207 c 1.720277,3.55559 3.670516,6.99687 5.892578,10.28125 6.659884,9.84383 15.45565,17.98598 24.126951,26.13867 v -26.06054 c -1.62281,-1.61471 -3.162807,-3.31047 -4.609372,-5.07422 -1.398369,-1.70498 -2.714978,-3.47077 -3.958985,-5.28516 -7.150486,-10e-6 -14.30068,1e-5 -21.451172,0 z m 280.585939,0 c -1.95553,4.56508 -4.92516,8.6886 -8.88086,11.66016 -3.42787,2.57505 -7.48072,4.22042 -11.63672,5.27344 -1.08508,0.27492 -2.17811,0.50859 -3.27734,0.71484 v 21.51172 c 0.99061,-0.19147 1.97991,-0.39346 2.96484,-0.62109 11.94126,-2.75937 23.58292,-8.5907 31.02539,-18.32813 4.50427,-5.8932 7.24041,-12.92702 8.80664,-20.21094 -6.334,0 -12.66794,1e-5 -19.00195,0 z m 68.47265,0 c -0.17954,1.55338 -0.45727,3.09247 -0.88671,4.59571 -0.80795,2.82814 -2.1461,5.53602 -4.11329,7.72265 -2.56399,2.85004 -6.08767,4.69878 -9.75,5.83203 -1.86761,0.57792 -3.77797,0.98196 -5.70703,1.30079 v 23.4746 c 2.35162,-0.79518 4.696,-1.61865 7.12891,-2.09375 2.16931,-0.42362 4.42274,-0.5577 6.58789,-0.11328 2.16515,0.44442 4.24245,1.49939 5.6875,3.17188 1.13214,1.31033 1.84093,2.95499 2.16406,4.65625 0.32313,1.70126 0.27355,3.45908 0.006,5.16992 -0.36226,2.31407 -1.11481,4.53499 -1.875,6.75586 h 17.59766 c 1.91101,-5.5345 4.68879,-10.7661 8.41797,-15.26758 3.92921,-4.74295 9.00212,-8.6678 14.75781,-10.77148 v -34.4336 z m 51.35352,0 v 32.72657 c 2.56275,0.0883 5.12571,0.44365 7.63281,0.98046 5.02952,1.07691 9.87553,2.86106 14.69922,4.64649 4.82369,1.78542 9.66316,3.58368 14.68555,4.69336 5.02238,1.10968 10.26977,1.51509 15.31055,0.49219 2.834,-0.57509 5.51832,-1.58983 8.14453,-2.78125 v -25.78125 c -4.22977,-0.74763 -8.35801,-2.12807 -12.24219,-3.97461 -5.49236,-2.61111 -10.63871,-6.25641 -14.375,-11.00196 z m 163.58594,0 c -1.65192,5.07857 -3.22603,10.17647 -4.02149,15.44727 -0.59121,3.91747 -0.74852,7.91961 -0.18945,11.8418 0.55907,3.92218 1.85056,7.76742 4.01172,11.08789 2.16629,3.32835 5.18287,6.0815 8.63476,8.04492 3.45192,1.96343 7.33163,3.14477 11.28126,3.55859 7.14495,0.7486 14.39926,-1.02658 20.79296,-4.33984 V 149.875 c -1.94074,0.5788 -3.91914,0.99576 -5.94336,1.11328 -2.30526,0.13384 -4.64779,-0.11745 -6.82226,-0.89453 -2.17447,-0.77708 -4.17621,-2.09373 -5.62891,-3.88867 -1.49805,-1.85098 -2.37407,-4.16266 -2.68554,-6.52344 -0.31148,-2.36079 -0.0777,-4.77152 0.48242,-7.08594 0.70546,-2.91491 1.91951,-5.65996 3.21289,-8.375 -7.70828,1e-5 -15.41672,0 -23.125,0 z m -63.24024,10.61719 c -2.65417,0.009 -5.31399,0.29807 -7.93554,0.73242 -6.89965,1.14322 -13.67904,3.28593 -20.59961,4.00781 v 19.75977 c 1.04812,-0.49176 2.10273,-0.96329 3.17578,-1.38867 3.83613,-1.52075 7.95459,-2.52754 12.07031,-2.22852 4.11572,0.29903 8.23886,2.02059 10.86328,5.20508 1.71027,2.07524 2.71764,4.6794 3.08203,7.34375 0.3644,2.66436 0.10672,5.38915 -0.52148,8.00391 -0.70209,2.92232 -1.86264,5.69067 -3.13477,8.41992 h 18.73633 c 2.72484,-5.79067 5.46408,-11.5684 6.96289,-17.76953 1.13763,-4.70676 1.53198,-9.65105 0.59766,-14.40235 -0.93432,-4.75129 -3.26826,-9.30372 -6.95313,-12.44531 -3.23542,-2.75841 -7.37283,-4.3243 -11.58203,-4.92383 -1.57845,-0.22481 -3.16921,-0.31997 -4.76172,-0.31445 z m 138.55274,3.40625 c -1.08228,0.007 -2.1652,0.0731 -3.23828,0.19141 -7.10491,0.78361 -13.69794,3.7515 -20.22657,6.75976 v 17.59961 c 1.85033,-1.08943 3.76041,-2.05015 5.80469,-2.72461 2.77203,-0.91454 5.78269,-1.26884 8.62891,-0.62109 2.84622,0.64775 5.50632,2.37304 6.93945,4.91601 1.14194,2.02628 1.45315,4.44571 1.21875,6.75977 -0.2344,2.31406 -0.98362,4.54524 -1.85156,6.70312 -0.86794,2.1579 -1.86086,4.2673 -2.61719,6.4668 -0.0451,0.1312 -0.0797,0.26644 -0.12305,0.39844 6.37364,-1e-5 12.74746,0 19.1211,0 0.91814,-5.39845 3.1851,-10.59557 4.94336,-15.83594 1.11884,-3.33462 2.04411,-6.76361 2.27343,-10.27344 0.22935,-3.50982 -0.26701,-7.12358 -1.86328,-10.25781 -1.95982,-3.84806 -5.50593,-6.77164 -9.51172,-8.38476 -3.00432,-1.20985 -6.25119,-1.71839 -9.49804,-1.69727 z m -488.4082,1.375 c -5.68024,-0.0113 -11.55919,1.28298 -16.00977,4.8125 -2.65271,2.10372 -4.70787,4.95186 -5.86719,8.13281 -1.15932,3.18096 -1.41918,6.6847 -0.74219,10.00196 0.67699,3.31725 2.28852,6.43785 4.60157,8.91015 2.31305,2.47231 5.31908,4.2895 8.58398,5.18555 0.75931,0.64005 1.71959,1.0376 2.70899,1.12305 0.98939,0.0855 2.00352,-0.1422 2.86132,-0.64258 0.85781,-0.50039 1.55612,-1.27053 1.96875,-2.17383 0.41263,-0.9033 0.53886,-1.93611 0.35547,-2.91211 -0.15348,-0.81683 -0.51588,-1.58239 -0.96875,-2.2793 -0.45287,-0.6969 -0.99706,-1.33009 -1.54492,-1.95507 -1.09573,-1.24998 -2.25127,-2.54251 -2.6875,-4.14649 -0.39943,-1.4687 -0.13234,-3.07997 0.60742,-4.41016 0.73977,-1.33016 1.92578,-2.3842 3.27539,-3.08789 2.69923,-1.40738 5.90705,-1.42026 8.93164,-1.07617 5.71033,0.64961 11.18461,2.43151 16.66407,4.22266 V 142.7207 c -1.95657,-0.28181 -3.91156,-0.58288 -5.86133,-0.91992 -5.59724,-0.96755 -11.19674,-2.17032 -16.87695,-2.18164 z m 94.54882,3.67774 c -20.09774,1.92752 -40.40625,2.61718 -60.47265,0.75585 v 18.60157 c 12.44215,2.90252 25.39911,2.87542 38.19726,2.86328 7.42096,-0.007 14.88756,-0.0152 22.27539,-0.625 z m -204.09375,0.21289 v 27.34375 c 0.84068,0.65461 1.69515,1.29253 2.57617,1.89453 4.29156,2.93231 9.19649,5.15476 14.37891,5.55273 2.59121,0.19898 5.22772,-0.0654 7.69336,-0.88672 2.46565,-0.82131 4.75673,-2.20783 6.54688,-4.09179 1.79014,-1.88397 3.06781,-4.27094 3.53125,-6.82813 0.46343,-2.55718 0.0921,-5.27643 -1.13672,-7.56641 -0.91517,-1.70547 -2.27946,-3.14682 -3.84766,-4.28125 -1.5682,-1.13442 -3.33655,-1.97022 -5.16211,-2.61328 -3.65111,-1.28611 -7.52169,-1.80925 -11.26562,-2.79297 -4.70512,-1.23626 -9.16374,-3.21103 -13.31446,-5.73046 z m 275.90625,1.65429 c -5.49427,0.76448 -10.94603,1.80324 -16.07226,3.87696 -3.45643,1.39822 -6.74342,3.26815 -9.5586,5.71289 -2.81517,2.44473 -5.15172,5.47697 -6.57812,8.92187 -1.82372,4.40447 -2.10599,9.30248 -1.8125,14.06055 0.14351,2.32674 0.42026,4.64205 0.70312,6.95703 h 22 c -0.11392,-1.13228 -0.19697,-2.26587 -0.16992,-3.4043 0.034,-1.42845 0.22354,-2.86082 0.66211,-4.2207 0.43857,-1.35988 1.13219,-2.64739 2.10352,-3.69531 1.75566,-1.89412 4.28934,-2.88308 6.8164,-3.41602 0.63177,-0.13323 1.26787,-0.24188 1.90625,-0.33789 z m 474.85547,4.54297 c -11.22193,0.0297 -22.32431,2.30618 -32.65234,6.69531 v 28.29102 c 20.15728,-2e-5 40.31541,3e-5 60.47265,0 10e-6,-10.04754 0,-20.09505 0,-30.14258 -8.93391,-3.17197 -18.34007,-4.80966 -27.82031,-4.84375 z m -822.572264,9.76758 v 25.21875 c 8.854303,10e-6 17.708206,-1e-5 26.5625,0 -6.892656,-10.25668 -15.962133,-18.86735 -26.5625,-25.21875 z m 778.582034,2.74219 c -9.45943,5.82219 -17.67104,13.46157 -24.16016,22.47656 8.05329,-1e-5 16.10688,10e-6 24.16016,0 z M 41.191406,196.03125 c -3e-6,20.15757 7e-6,40.31504 0,60.47266 12.340685,10e-6 24.680817,-2e-5 37.021485,0 2.535205,-8.10808 3.82657,-16.55364 3.830078,-25.04883 -0.03326,-12.24502 -2.741599,-24.3349 -7.935547,-35.42383 -10.97216,-1e-5 -21.943841,1e-5 -32.916016,0 z m 315.287114,0 c -0.0143,2.47364 -0.21085,4.94187 -0.75586,7.35156 -0.84424,3.73262 -2.50602,7.33398 -5.13672,10.11328 -3.60455,3.80817 -8.76034,5.81181 -13.92383,6.72461 -2.71826,0.48055 -5.46786,0.68686 -8.22656,0.82422 v 22.50196 c 11.45412,-0.71958 22.8941,-3.50689 32.01757,-10.31836 6.55606,-4.89467 11.62017,-11.70957 14.64258,-19.3125 2.25598,-5.67496 3.38092,-11.77463 3.43164,-17.88477 z m 60.67382,0 c -1.26238,9.40663 -0.21544,19.15781 1.17969,28.62109 1.5575,10.56467 3.51141,21.23311 3.04297,31.85157 h 19.87109 c -1.95558,-14.46523 -5.9522,-28.67971 -6.92382,-43.25586 -0.38245,-5.73742 -0.28532,-11.53033 0.52343,-17.2168 z m 147.07813,0 c -7.5721,19.08006 -8.96046,40.5712 -3.93555,60.47266 6.56117,-1e-5 13.12243,0 19.6836,0 -1.87214,-8.52823 -2.79925,-17.26488 -2.7461,-25.9961 0.0714,-11.72299 1.92373,-23.48666 5.98438,-34.47656 z m 141.37109,0 c 0.30239,0.78039 0.63348,1.54978 1.00977,2.29492 1.13654,2.25062 2.53155,4.36013 3.7832,6.54883 1.25165,2.1887 2.37132,4.48824 2.89258,6.95508 0.52126,2.46684 0.40451,5.13237 -0.72852,7.38476 -0.67605,1.34396 -1.69758,2.50603 -2.91015,3.39649 -1.21257,0.89046 -2.61322,1.51229 -4.07422,1.87109 -2.92199,0.7176 -6.02946,0.37762 -8.89649,-0.53515 -3.27831,-1.04373 -6.24248,-2.79115 -9.1875,-4.59571 0,5.71746 10e-6,11.43488 0,17.15235 6.11733,2.46483 12.09263,5.35297 18.51172,6.82226 4.48017,1.02547 9.19598,1.32888 13.66407,0.25195 4.46808,-1.0769 8.67468,-3.62872 11.20898,-7.46289 2.25165,-3.40654 3.06747,-7.62049 2.87109,-11.69921 -0.19637,-4.07872 -1.34631,-8.05592 -2.76562,-11.88477 -1.41931,-3.82885 -3.11431,-7.55192 -4.46289,-11.40625 -0.58352,-1.66772 -1.09527,-3.37034 -1.49414,-5.09375 -6.4739,1e-5 -12.94798,0 -19.42188,0 z m 83.15821,0 c -5.9173,11.6984 -9.01613,24.61876 -9.04883,37.72852 0.005,7.6898 1.06479,15.34257 3.15039,22.74414 12.30389,-2e-5 24.60823,10e-6 36.91211,0 0,-20.15762 -1e-5,-40.31509 0,-60.47266 -10.33776,1e-5 -20.67591,-1e-5 -31.01367,0 z m 42.35156,0 c -10e-6,20.15757 1e-5,40.31504 0,60.47266 20.15728,-3e-5 40.31541,2e-5 60.47265,0 10e-6,-20.15763 0,-40.31508 0,-60.47266 -20.15724,3e-5 -40.31537,-2e-5 -60.47265,0 z m -169.69727,15.2207 c -6.66961,0.10826 -13.28282,1.65413 -19.4414,4.2168 -2.26976,0.94447 -4.53129,2.06267 -6.24414,3.82617 -0.85643,0.88175 -1.56358,1.91948 -1.99024,3.07227 -0.42666,1.15278 -0.5657,2.42329 -0.3164,3.62695 0.29021,1.40134 1.10022,2.66849 2.16992,3.61914 1.06969,0.95066 2.38954,1.5964 3.76758,1.98242 2.75604,0.77206 5.67885,0.52966 8.5332,0.31836 9.42865,-0.69797 19.04827,-0.9679 28.25976,0.98242 10e-6,-6.45379 0,-12.90754 0,-19.36132 -4.71755,-1.62419 -9.7435,-2.36428 -14.73828,-2.28321 z m -160.74023,0.0801 c -2.56313,-0.011 -5.10968,1.0315 -7.06836,2.70508 -2.2385,1.91267 -3.74507,4.58963 -4.55664,7.41992 -0.81157,2.83029 -0.95959,5.81646 -0.78906,8.75586 0.31644,5.45466 1.70668,10.77945 2.82812,16.12695 0.70197,3.34731 1.30116,6.75553 1.46484,10.16407 h 11.29102 c -0.60598,-2.683 -1.16976,-5.37343 -1.52734,-8.09961 -0.70179,-5.35035 -0.5684,-10.95373 1.5332,-15.92383 1.11838,-2.64486 2.7624,-5.03963 3.91016,-7.67188 0.57387,-1.31612 1.02239,-2.69574 1.19531,-4.12109 0.17292,-1.42535 0.0622,-2.90009 -0.45313,-4.24023 -0.52834,-1.3741 -1.47541,-2.57799 -2.66211,-3.44922 -1.18669,-0.87124 -2.60761,-1.41262 -4.06836,-1.59571 -0.36518,-0.0458 -0.73149,-0.0687 -1.09765,-0.0703 z M 317.0957,221.70898 c -4.12349,0.42724 -8.21401,1.16006 -12.16406,2.4043 -5.19033,1.6349 -10.14378,4.17447 -14.20117,7.80078 -4.22113,3.77266 -7.37911,8.64092 -9.57422,13.85938 -1.45224,3.45243 -2.49085,7.06108 -3.25781,10.73047 6.07621,0 12.15231,-1e-5 18.22851,0 0.20631,-0.53566 0.42293,-1.0678 0.66407,-1.58985 1.43967,-3.1169 3.57488,-5.97454 6.43554,-7.87304 2.73048,-1.81211 5.99659,-2.67589 9.25391,-3.03516 1.53286,-0.16907 3.07315,-0.22728 4.61523,-0.24805 10e-6,-7.34963 0,-14.6992 0,-22.04883 z m -40.79492,46.13282 c -0.84407,9.91589 -0.38982,19.93398 0.61524,29.84765 0.29309,2.89104 0.66004,5.86838 2.0996,8.39258 0.7198,1.2621 1.70991,2.38764 2.94532,3.15235 1.2354,0.76468 2.72475,1.15158 4.16406,0.95312 1.27698,-0.17608 2.47115,-0.80461 3.41406,-1.68359 0.94291,-0.87898 1.64279,-1.99945 2.11914,-3.19727 0.95271,-2.39564 1.02284,-5.03915 1.04492,-7.61719 0.0854,-9.95903 -0.34515,-19.98204 0.88477,-29.84765 -5.7624,-10e-6 -11.5247,0 -17.28711,0 z m 143.49805,0 c -1.2657,5.16992 -3.31294,10.13921 -6.32227,14.51562 -3.36001,4.8864 -7.93218,8.9821 -13.23047,11.61133 0,6.01565 1e-5,12.03122 0,18.04687 5.30483,-0.29927 10.5716,-1.07462 15.62305,-2.68945 7.4504,-2.38171 14.44552,-6.67724 19.11133,-12.95508 3.41813,-4.59909 5.48417,-10.11145 6.49414,-15.75195 0.75381,-4.20988 0.93859,-8.49825 0.79297,-12.77734 z m 40.91992,25.33398 c -8.63123,2.82194 -17.57724,4.89814 -25.0918,9.91016 -5.65607,3.77245 -10.20428,9.05839 -13.66211,14.91211 -1.94062,3.28527 -3.54143,6.75357 -4.91211,10.3164 h 19.37305 c 1.86025,-3.75258 4.43426,-7.16603 7.30469,-10.23633 4.73858,-5.0685 10.47614,-9.40171 16.98828,-11.68945 z m -71.81055,4.02539 c -4.45291,0.5448 -9.01293,0.51555 -13.51367,0.59375 -6.92035,0.12025 -14.08491,0.60926 -20.20508,3.8418 -4.5644,2.41082 -8.27734,6.23648 -11.09961,10.55859 -2.82226,4.32212 -4.80001,9.14052 -6.45703,14.0293 -0.23507,0.69354 -0.45959,1.39111 -0.68164,2.08984 7.81644,10e-6 15.63279,0 23.44922,0 1.07056,-2.3376 2.24928,-4.62943 3.7168,-6.73828 1.67117,-2.40149 3.7233,-4.57127 6.20117,-6.12695 3.24046,-2.03445 7.07798,-2.94028 10.89062,-3.26172 2.5595,-0.21579 5.12936,-0.17751 7.69922,-0.11328 10e-6,-4.95771 0,-9.91534 0,-14.87305 z m -54.76367,42.45117 c -0.42679,2.54518 -0.70902,5.11122 -0.79492,7.69336 -0.23973,7.20585 1.0684,14.56168 4.52539,20.88868 2.5226,4.61686 6.19818,8.64478 10.73047,11.3164 6.55725,3.86526 14.69147,4.70239 22.07812,2.86524 2.28535,-0.5684 4.56129,-1.40769 6.36329,-2.92383 0.90097,-0.75807 1.67176,-1.68164 2.19531,-2.73633 0.52354,-1.05469 0.7952,-2.2435 0.71093,-3.41797 -0.11437,-1.59438 -0.88052,-3.09961 -1.95703,-4.28125 -1.0765,-1.18164 -2.449,-2.05984 -3.89453,-2.74219 -2.89105,-1.36468 -6.10245,-1.9885 -8.92578,-3.48828 -4.33779,-2.30428 -7.458,-6.61784 -8.71094,-11.36719 -0.97311,-3.68865 -0.88335,-7.60192 -0.15039,-11.3457 0.0302,-0.15444 0.0673,-0.307 0.0996,-0.46094 -7.4232,0 -14.84632,1e-5 -22.26953,0 z m 79.30664,0 c -1.42789,5.53319 -2.36338,11.21728 -1.95117,16.90039 0.48315,6.66118 2.97777,13.36903 7.875,17.91016 2.94343,2.7294 6.63689,4.57633 10.50195,5.66016 3.86507,1.08383 7.90589,1.42911 11.91993,1.39843 6.32378,-0.0484 12.61309,-1.00294 18.92187,-1.37109 v -20.23047 c -0.507,0.0925 -1.01686,0.17408 -1.5293,0.24219 -4.52974,0.60209 -9.23822,0.14039 -13.44726,-1.63867 -4.20905,-1.77906 -7.88768,-4.91739 -10.02735,-8.95508 -1.6091,-3.03651 -2.28671,-6.47082 -2.21484,-9.91602 z M 277.05469,430.1875 c -6.89145,0.0263 -13.7535,0.90005 -20.43164,2.60156 -2e-5,13.04961 1e-5,26.09881 0,39.14844 20.15769,10e-6 40.315,-10e-6 60.47265,0 10e-6,-10.52812 -1e-5,-21.05588 0,-31.58398 -12.29343,-6.66699 -26.05612,-10.1612 -40.04101,-10.16602 z m 51.38086,17.66211 c -10e-6,8.02938 1e-5,16.0585 0,24.08789 h 21.13086 c -5.43381,-9.31003 -12.60776,-17.48791 -21.13086,-24.08789 z"
       transform="scale(0.26458333)"
       id="path6744"
       inkscape:connector-curvature="0"
       sodipodi:nodetypes="cscscccsccccccccccccccscccccccsccccccscccccsccsssccccscccscccsscsscsscccsssscscccscsccccsccccssccssccccccsscccsscccccsccccssscccccsccccscscccccssccsccccccscccccsccccccccccsccccccssccssccssccsccccccscccsssccsccccssssscsccccccsccccscccccccccssscccccccccccsscccccccsscccccscccccscccccccscccsscsscccssssccccscccscscsccccscccccccccscccccccccccscccccccccssccccsccccccccccccccccccccccccccccccsscccsccscccccsscccsscsscccccscsccccccccccccccsccccccsccscsscccccccsccccccssccccscccccccscccccsccscscccsccccccccsccccccscccccsccccccssccccsssccscsccccccccscccccccccc" />
  </g>
  <g
     inkscape:groupmode="layer"
     id="layer3"
     inkscape:label="Layer 3"
     style="display:none" />
</svg>
