<?xml version="1.0" encoding="UTF-8" standalone="no"?>
<!-- Created with Inkscape (http://www.inkscape.org/) -->

<svg
   xmlns:osb="http://www.openswatchbook.org/uri/2009/osb"
   xmlns:dc="http://purl.org/dc/elements/1.1/"
   xmlns:cc="http://creativecommons.org/ns#"
   xmlns:rdf="http://www.w3.org/1999/02/22-rdf-syntax-ns#"
   xmlns:svg="http://www.w3.org/2000/svg"
   xmlns="http://www.w3.org/2000/svg"
   xmlns:xlink="http://www.w3.org/1999/xlink"
   xmlns:sodipodi="http://sodipodi.sourceforge.net/DTD/sodipodi-0.dtd"
   xmlns:inkscape="http://www.inkscape.org/namespaces/inkscape"
   width="210mm"
   height="297mm"
   viewBox="0 0 210 297"
   version="1.1"
   id="svg8"
   inkscape:version="0.92.0 r15299"
   sodipodi:docname="stikers.svg">
  <defs
     id="defs2">
    <inkscape:path-effect
       effect="spiro"
       id="path-effect6746"
       is_visible="true" />
    <inkscape:path-effect
       effect="spiro"
       id="path-effect6742"
       is_visible="true" />
    <inkscape:path-effect
       effect="spiro"
       id="path-effect6738"
       is_visible="true" />
    <inkscape:path-effect
       effect="spiro"
       id="path-effect6643"
       is_visible="true" />
    <inkscape:path-effect
       effect="spiro"
       id="path-effect6639"
       is_visible="true" />
    <inkscape:path-effect
       effect="spiro"
       id="path-effect6635"
       is_visible="true" />
    <inkscape:path-effect
       effect="spiro"
       id="path-effect6631"
       is_visible="true" />
    <inkscape:path-effect
       effect="spiro"
       id="path-effect6627"
       is_visible="true" />
    <marker
       inkscape:stockid="Arrow1Lstart"
       orient="auto"
       refY="0.0"
       refX="0.0"
       id="Arrow1Lstart"
       style="overflow:visible"
       inkscape:isstock="true">
      <path
         id="path6305"
         d="M 0.0,0.0 L 5.0,-5.0 L -12.5,0.0 L 5.0,5.0 L 0.0,0.0 z "
         style="fill-rule:evenodd;stroke:#000000;stroke-width:1.0pt"
         transform="scale(0.8) translate(12.5,0)" />
    </marker>
    <inkscape:path-effect
       effect="spiro"
       id="path-effect2322"
       is_visible="true" />
    <linearGradient
       id="linearGradient2308"
       osb:paint="solid">
      <stop
         style="stop-color:#fb0000;stop-opacity:1;"
         offset="0"
         id="stop2306" />
    </linearGradient>
    <inkscape:path-effect
       effect="spiro"
       id="path-effect830"
       is_visible="true" />
    <inkscape:path-effect
       effect="spiro"
       id="path-effect2334"
       is_visible="true" />
    <inkscape:path-effect
       effect="spiro"
       id="path-effect2354"
       is_visible="true" />
    <inkscape:path-effect
       effect="spiro"
       id="path-effect6107"
       is_visible="true" />
  </defs>
  <sodipodi:namedview
     id="base"
     pagecolor="#ffffff"
     bordercolor="#666666"
     borderopacity="1.0"
     inkscape:pageopacity="0.0"
     inkscape:pageshadow="2"
     inkscape:zoom="0.43663844"
     inkscape:cx="474.79397"
     inkscape:cy="1004.9518"
     inkscape:document-units="mm"
     inkscape:current-layer="layer1"
     showgrid="false"
     showguides="true"
     inkscape:guide-bbox="true"
     inkscape:snap-bbox="true"
     inkscape:bbox-nodes="true"
     inkscape:window-width="1366"
     inkscape:window-height="705"
     inkscape:window-x="-8"
     inkscape:window-y="-8"
     inkscape:window-maximized="1"
     inkscape:snap-intersection-paths="false"
     inkscape:object-nodes="false"
     inkscape:snap-nodes="false" />
  <metadata
     id="metadata5">
    <rdf:RDF>
      <cc:Work
         rdf:about="">
        <dc:format>image/svg+xml</dc:format>
        <dc:type
           rdf:resource="http://purl.org/dc/dcmitype/StillImage" />
        <dc:title></dc:title>
      </cc:Work>
    </rdf:RDF>
  </metadata>
  <g
     inkscape:groupmode="layer"
     id="layer2"
     inkscape:label="Layer 2"
     style="display:inline"
     sodipodi:insensitive="true">
    <rect
       style="display:inline;opacity:1;fill:#ff9b00;fill-opacity:1;stroke:none;stroke-width:4.30954742;stroke-miterlimit:4;stroke-dasharray:none;stroke-opacity:1"
       id="rect2316"
       width="57"
       height="57"
       x="9.3977375"
       y="12.365875" />
    <rect
       y="12.365875"
       x="66.397736"
       height="57"
       width="57"
       id="rect6087"
       style="display:inline;opacity:1;fill:#ff9b00;fill-opacity:1;stroke:none;stroke-width:4.30954742;stroke-miterlimit:4;stroke-dasharray:none;stroke-opacity:1" />
    <rect
       style="display:inline;opacity:1;fill:#ff9b00;fill-opacity:1;stroke:none;stroke-width:4.30954742;stroke-miterlimit:4;stroke-dasharray:none;stroke-opacity:1"
       id="rect6089"
       width="57"
       height="57"
       x="123.39774"
       y="12.365875" />
    <rect
       y="12.365875"
       x="180.39774"
       height="57"
       width="57"
       id="rect6091"
       style="display:inline;opacity:1;fill:#ff9b00;fill-opacity:1;stroke:none;stroke-width:4.30954742;stroke-miterlimit:4;stroke-dasharray:none;stroke-opacity:1" />
    <rect
       style="display:inline;opacity:1;fill:#ff9b00;fill-opacity:1;stroke:none;stroke-width:4.30954742;stroke-miterlimit:4;stroke-dasharray:none;stroke-opacity:1"
       id="rect6093"
       width="57"
       height="57"
       x="66.397736"
       y="-44.634125" />
    <rect
       style="display:inline;opacity:1;fill:#ff9b00;fill-opacity:1;stroke:none;stroke-width:4.30954742;stroke-miterlimit:4;stroke-dasharray:none;stroke-opacity:1"
       id="rect6095"
       width="57"
       height="57"
       x="66.397736"
       y="69.365875" />
  </g>
  <g
     inkscape:label="Layer 1"
     inkscape:groupmode="layer"
     id="layer1"
     style="display:inline">
    <path
       style="fill:#000000;fill-opacity:1;stroke:none;stroke-width:0.26458332px;stroke-linecap:butt;stroke-linejoin:miter;stroke-opacity:1"
       d="m 154.0185,70.062007 c -0.87394,-2.938894 -1.31097,-6.007307 -1.2923,-9.073332 0.0202,-3.316109 0.57883,-6.644769 1.81444,-9.722146 0.95475,-2.377864 2.31112,-4.610595 2.91311,-7.101255 0.301,-1.24533 0.40542,-2.553295 0.15822,-3.810408 -0.24721,-1.257114 -0.86437,-2.461711 -1.83932,-3.292922 -0.85604,-0.729829 -1.95078,-1.144406 -3.06446,-1.303028 -1.11369,-0.158622 -2.24987,-0.0731 -3.35967,0.110784 -2.21958,0.367764 -4.39221,1.128273 -6.64206,1.126184 -1.74489,-0.0016 -3.47107,-0.46905 -5.04694,-1.218226 -1.84964,-0.879329 -3.55395,-2.199471 -4.52484,-4.002739 -0.70278,-1.305295 -0.99107,-2.834739 -0.78241,-4.302441 0.20866,-1.467703 0.91812,-2.864236 2.00064,-3.877073 0.9283,-0.868541 2.10903,-1.445063 3.34523,-1.741556 1.2362,-0.296492 2.52749,-0.320928 3.79009,-0.172798 2.41891,0.28379 4.71442,1.184061 7.03214,1.932324 2.31771,0.748262 4.75722,1.355492 7.17044,1.026796 2.24197,-0.30537 4.29866,-1.39643 6.49798,-1.928099 1.09966,-0.265835 2.24973,-0.389949 3.36446,-0.196858 1.11474,0.193091 2.19494,0.725562 2.90997,1.602288 0.74704,0.915976 1.04305,2.13724 1.02462,3.319079 -0.0184,1.18184 -0.32672,2.339151 -0.67655,3.468177 -0.6205,2.002541 -1.38186,3.976108 -1.69471,6.049104 -0.15642,1.036498 -0.19842,2.095394 -0.0505,3.13314 0.14792,1.037746 0.4899,2.055128 1.06171,2.933669 0.57316,0.880628 1.37101,1.609192 2.28433,2.128683 0.91332,0.519491 1.93997,0.83168 2.98497,0.941169 2.09001,0.218977 4.21644,-0.375856 6.03016,-1.437221 1.33315,-0.78014 2.54039,-1.817222 4.00725,-2.301173 0.73344,-0.241976 1.52956,-0.335683 2.28262,-0.164297 0.75306,0.171385 1.45734,0.627548 1.83652,1.300375 0.30214,0.536119 0.38417,1.176122 0.32215,1.788384 -0.062,0.612262 -0.26014,1.202626 -0.48978,1.773568 -0.22964,0.570943 -0.49231,1.129097 -0.69242,1.711048 -0.20011,0.58195 -0.33747,1.19465 -0.30505,1.80919 0.0351,0.666171 0.26839,1.308057 0.5691,1.903534 0.30071,0.595477 0.66964,1.153509 1.00081,1.732602 0.33116,0.579093 0.62749,1.187524 0.7654,1.840208 0.13792,0.652685 0.10685,1.357965 -0.19293,1.95391 -0.17887,0.355587 -0.44884,0.662918 -0.76967,0.898519 -0.32082,0.235602 -0.69163,0.400254 -1.07818,0.495187 -0.77311,0.189865 -1.59539,0.09992 -2.35395,-0.141581 -1.51714,-0.483011 -2.7803,-1.533888 -4.20574,-2.243188 -1.58009,-0.786252 -3.35968,-1.144418 -5.12434,-1.115774 -1.76467,0.02864 -3.5141,0.437735 -5.14356,1.115774 -0.60054,0.249892 -1.19909,0.545429 -1.65228,1.012022 -0.2266,0.233297 -0.41353,0.508102 -0.52641,0.81311 -0.11289,0.305008 -0.14969,0.640914 -0.0837,0.959383 0.0768,0.370771 0.29096,0.706253 0.57399,0.95778 0.28302,0.251527 0.6321,0.422137 0.99671,0.524273 0.72921,0.204272 1.5028,0.140143 2.25801,0.08424 2.85564,-0.211395 5.77722,-0.274707 8.52758,0.522097 2.33601,0.676763 4.47645,1.954829 6.84721,2.497479 1.18538,0.271325 2.43281,0.351442 3.61499,0.06651 1.18218,-0.284935 2.29532,-0.959947 2.96585,-1.974404 0.59575,-0.901316 0.8117,-2.016267 0.75974,-3.095428 -0.0519,-1.079161 -0.35635,-2.131188 -0.73188,-3.144238 -0.37552,-1.013049 -0.82388,-1.998439 -1.1807,-3.01823 -0.35681,-1.019791 -0.62275,-2.085492 -0.61505,-3.165876 0.0133,-1.861197 0.82653,-3.606954 1.41859,-5.371523 0.29602,-0.882285 0.54051,-1.789622 0.60119,-2.718264 0.0607,-0.928641 -0.0705,-1.884727 -0.49285,-2.713993 -0.51854,-1.018132 -1.4568,-1.791348 -2.51667,-2.218153 -1.05986,-0.426805 -2.23386,-0.523794 -3.36955,-0.398537 -2.27137,0.250515 -4.34653,1.345356 -6.43071,2.282409 -1.11446,0.501065 -2.27361,0.967952 -3.49348,1.038772 -0.60993,0.03541 -1.2298,-0.03116 -1.80513,-0.236766 -0.57533,-0.205601 -1.10486,-0.553969 -1.48922,-1.028882 -0.39636,-0.489741 -0.62832,-1.101157 -0.71073,-1.725781 -0.0824,-0.624624 -0.0201,-1.262655 0.12811,-1.875014 0.29641,-1.224716 0.92469,-2.33787 1.45335,-3.481681 0.82403,-1.782859 1.4213,-3.701508 1.4576,-5.665252 0.0363,-1.963743 -0.5278,-3.981271 -1.80566,-5.472809 -0.7428,-0.867009 -1.7043,-1.534326 -2.74885,-1.995166 -1.04455,-0.46084 -2.17131,-0.719615 -3.30713,-0.835229 -2.27164,-0.231227 -4.55775,0.102117 -6.8224,0.393944 -1.50311,0.193693 -3.02225,0.369624 -4.53108,0.227149 -1.50883,-0.142475 -3.02432,-0.627909 -4.17053,-1.619407 C 151.69148,15.5244 150.96309,13.802754 151.06,12.10928 l -26.96613,-27.96711 c -1.27182,0.200348 -2.6051,-0.01023 -3.75327,-0.592796 -1.14816,-0.582563 -2.10545,-1.534186 -2.69482,-2.678874 -0.65905,-1.280029 -0.85124,-2.760473 -0.77164,-4.198001 0.0796,-1.437528 0.41802,-2.84693 0.77163,-4.242561 0.49991,-1.97309 1.03754,-3.979753 0.91058,-6.011225 -0.0635,-1.015736 -0.29774,-2.028907 -0.764,-2.933533 -0.46626,-0.904627 -1.17236,-1.697129 -2.06093,-2.193302 -0.83856,-0.468247 -1.81275,-0.66028 -2.77317,-0.655219 -0.96043,0.0051 -1.91122,0.199925 -2.83397,0.466351 -1.84549,0.53285 -3.62309,1.357706 -5.53093,1.581124 -1.08399,0.126941 -2.19878,0.05242 -3.23576,-0.287893 -1.03698,-0.340316 -1.99327,-0.953313 -2.681332,-1.800492 -0.542935,-0.668492 -0.91285,-1.476316 -1.06424,-2.324102 -0.151391,-0.847785 -0.08393,-1.733712 0.194078,-2.548801 l -5.046932,-1.044194 c -1.414024,1.339365 -2.245978,3.273312 -2.245978,5.220968 0,1.947655 0.831954,3.881602 2.245978,5.220967 1.441326,1.365224 3.401814,2.080703 5.36985,2.341647 1.968036,0.260945 3.965236,0.101552 5.942246,-0.07923 1.05545,-0.09651 2.11866,-0.199027 3.17291,-0.09024 1.05425,0.108786 2.11279,0.445531 2.91821,1.134435 0.89854,0.768561 1.40825,1.91378 1.6251,3.076124 0.21685,1.162344 0.16751,2.355857 0.11522,3.537099 -0.27204,6.14561 -0.61146,12.34743 -2.26241,18.2733809 -0.40578,1.4565024 -0.9197,2.9426821 -1.96336,4.0366748 -0.83937,0.8798517 -1.9929,1.4490702 -3.19954,1.5997715 -0.65872,0.0822692 -1.33489,0.042793 -1.97308,-0.1399202 -0.63819,-0.1827133 -1.23739,-0.5104297 -1.7187,-0.9676139 -0.53939,-0.5123544 -0.920694,-1.1757399 -1.168159,-1.877316 -0.247464,-0.7015761 -0.366198,-1.4425836 -0.431614,-2.1836426 -0.169234,-1.9171458 0.01112,-3.8470545 -0.02913,-5.7712345 -0.04025,-1.92418 -0.323608,-3.906374 -1.324527,-5.550226 -0.622239,-1.02193 -1.505716,-1.876662 -2.522519,-2.507244 -1.016804,-0.630581 -2.164551,-1.039817 -3.343443,-1.24411 -2.357783,-0.408588 -4.799133,4.77e-4 -7.05527,0.79793 -0.701072,0.247801 -1.38981,0.532988 -2.1045,0.738235 -0.714689,0.205248 -1.463698,0.329696 -2.202577,0.24624 -0.667076,-0.07535 -1.311505,-0.320743 -1.873207,-0.688381 -0.561702,-0.367638 -1.041291,-0.855772 -1.419172,-1.410635 -0.755763,-1.109726 -1.094524,-2.465894 -1.137758,-3.807833 -0.05874,-1.82328 0.399135,-3.617356 0.749608,-5.407599 0.350473,-1.790243 0.592691,-3.661921 0.111808,-5.421624 -0.303236,-1.109634 -0.892888,-2.139707 -1.696183,-2.963088 -0.803295,-0.823382 -1.818494,-1.438289 -2.920302,-1.768832 -1.101808,-0.330542 -2.287842,-0.376004 -3.41172,-0.130775 -1.123878,0.245229 -2.183169,0.780619 -3.047137,1.540092 l 0.492236,4.307077 c 0.446115,-0.946571 1.364965,-1.655522 2.393742,-1.846923 1.028777,-0.1914 2.141117,0.139655 2.897811,0.862448 0.690098,0.659181 1.068896,1.602075 1.155475,2.552474 0.08658,0.9504 -0.100934,1.909566 -0.414929,2.810766 -0.627992,1.8024 -1.751811,3.404189 -2.340318,5.219865 -0.557964,1.721444 -0.607444,3.611059 -0.09606,5.346911 0.511381,1.735853 1.588122,3.30749 3.049488,4.374778 1.666879,1.217381 3.775147,1.748071 5.838854,1.707866 2.063707,-0.0402 4.088783,-0.623126 5.974842,-1.461747 1.418715,-0.63082 2.792776,-1.414387 4.313407,-1.728023 0.760316,-0.156818 1.553772,-0.191063 2.311468,-0.02204 0.757697,0.169019 1.478447,0.550203 1.989281,1.134771 0.541924,0.620146 0.82369,1.441573 0.873413,2.263638 0.04972,0.822065 -0.120922,1.64604 -0.400637,2.420651 -0.559431,1.549222 -1.542183,2.9101219 -2.195608,4.4221028 -1.355164,3.1357545 -1.209777,6.7366341 -0.441284,10.065124 0.768492,3.3284898 2.122118,6.4892449 3.148591,9.7474312 0.223158,0.70834 0.432248,1.428795 0.479837,2.169929 0.04759,0.741135 -0.07772,1.512768 -0.479837,2.137148 -0.401246,0.623034 -1.054532,1.058078 -1.759227,1.28737 -0.704695,0.229291 -1.459927,0.265757 -2.198989,0.21138 -1.478124,-0.108752 -2.928808,-0.571583 -4.409819,-0.514275 -1.29869,0.05025 -2.543982,0.497432 -3.811366,0.785285 -0.633692,0.143926 -1.280013,0.248775 -1.929818,0.242936 -0.649804,-0.0058 -1.305563,-0.125751 -1.888497,-0.412924 -0.957689,-0.47179 -1.661488,-1.375404 -2.028679,-2.377864 -0.367191,-1.00246 -0.420983,-2.098056 -0.30945,-3.159807 C 76.373768,11.074788 77.0834,9.2681861 77.634553,7.4345228 78.185705,5.6008595 78.582521,3.6441143 78.142686,1.7806133 77.851631,0.54746718 77.192574,-0.59637314 76.271692,-1.4666256 75.35081,-2.336878 74.171568,-2.9302704 72.92395,-3.1512024 c -1.247619,-0.220932 -2.558921,-0.068573 -3.722647,0.432531 -1.163725,0.501104 -2.175498,1.3490686 -2.872313,2.40727976 L 66.30627,3.9297702 c 0.917343,-0.2986189 1.942529,-0.2523598 2.82925,0.1276633 0.886721,0.3800231 1.627244,1.0904963 2.043653,1.9607231 0.523306,1.093623 0.526381,2.3671318 0.34504,3.565871 -0.18134,1.1987394 -0.534964,2.3674294 -0.693105,3.5694494 -0.193413,1.470115 -0.08778,2.983407 0.349357,4.400289 0.437141,1.416881 1.208781,2.734611 2.261125,3.779224 1.573787,1.562225 3.715066,2.461632 5.89827,2.850184 2.183205,0.388551 4.422768,0.299217 6.63205,0.108364 0.979939,-0.08465 1.963136,-0.189122 2.944979,-0.13056 0.981844,0.05856 1.973865,0.289929 2.798083,0.826689 1.027911,0.669411 1.72512,1.782116 2.019142,2.973025 0.294023,1.190908 0.20751,2.453952 -0.104789,3.640199 -0.446677,1.696672 -1.381742,3.297028 -2.784515,4.350803 -0.906958,0.681314 -1.979606,1.116983 -3.079214,1.395594 -1.099609,0.27861 -2.23123,0.406106 -3.359977,0.518762 -7.007178,0.699363 -14.118816,0.851444 -21.057896,-0.348065 -1.480936,-0.255999 -2.962488,-0.574187 -4.465384,-0.57718 -1.502896,-0.003 -3.058674,0.339456 -4.236225,1.273309 -0.701862,0.556609 -1.245609,1.310415 -1.552347,2.152042 -0.306737,0.841627 -0.375537,1.76853 -0.196417,2.646221 0.17912,0.87769 0.605619,1.703512 1.217613,2.357643 0.611995,0.654131 1.407633,1.134592 2.271472,1.371671 0.200901,0.169346 0.454916,0.274731 0.716694,0.297339 0.261779,0.02261 0.530101,-0.03766 0.757061,-0.170058 0.22696,-0.132393 0.411502,-0.336291 0.520676,-0.575288 0.109175,-0.238998 0.142475,-0.511983 0.09395,-0.770217 -0.04061,-0.216119 -0.136424,-0.418941 -0.256246,-0.60333 -0.119822,-0.184388 -0.263614,-0.351839 -0.408569,-0.5172 -0.289911,-0.330722 -0.595795,-0.672417 -0.711213,-1.096804 -0.105684,-0.388594 -0.03478,-0.815247 0.160951,-1.16719 0.195729,-0.351944 0.509548,-0.630896 0.866633,-0.817081 0.714169,-0.37237 1.56263,-0.3755 2.362886,-0.284462 2.363955,0.268925 4.575123,1.26928 6.87743,1.869268 3.453239,0.899923 7.069055,0.889777 10.637627,0.88639 3.242713,-0.0031 6.519053,4.91e-4 9.678511,-0.729591 3.159458,-0.730082 6.239761,-2.272994 8.208915,-4.849353 1.522421,-1.991871 2.289025,-4.474929 2.610482,-6.961288 0.09438,-0.73 0.153282,-1.466505 0.314634,-2.184679 0.161353,-0.718173 0.432558,-1.426467 0.903593,-1.992094 0.549336,-0.659647 1.338876,-1.084858 2.160816,-1.332448 0.82195,-0.24759 1.68307,-0.331039 2.53805,-0.407874 0.675,-0.06066 1.35264,-0.118039 2.02967,-0.08728 0.67702,0.03076 1.35725,0.152364 1.97307,0.435341 1.08613,0.499088 1.90535,1.47952 2.37183,2.580046 0.46647,1.100526 0.6057,2.315925 0.58672,3.511082 -0.0123,0.778117 -0.0905,1.559651 -0.30421,2.30793 -0.21377,0.74828 -0.56757,1.464327 -1.08805,2.042873 -0.67839,0.754072 -1.61074,1.243448 -2.57973,1.543289 -0.96899,0.29984 -1.98232,0.423257 -2.9893,0.545099 -1.95873,0.237002 -3.94426,0.479802 -5.773287,1.219698 -0.914513,0.369948 -1.783963,0.864502 -2.528811,1.511338 -0.744849,0.646836 -1.362963,1.44952 -1.740365,2.360983 -0.482526,1.165349 -0.557376,2.461231 -0.479725,3.720136 0.07765,1.258905 0.300738,2.505083 0.389555,3.763249 0.0713,1.01002 0.05477,2.034342 -0.168603,3.021929 -0.223371,0.987588 -0.662874,1.940691 -1.358914,2.676049 -0.953704,1.007577 -2.317743,1.537757 -3.683918,1.779271 -1.366175,0.241513 -2.76277,0.224288 -4.147532,0.309114 -1.437099,0.08803 -2.874545,0.288434 -4.247821,0.721003 -1.373276,0.43257 -2.684144,1.104052 -3.757661,2.063512 -1.116841,0.998182 -1.952133,2.28646 -2.532924,3.667179 -0.58079,1.380719 -0.914931,2.854748 -1.121752,4.3383 -0.433579,3.110116 -0.316728,6.273562 0,9.397741 0.07755,0.764921 0.174571,1.5526 0.555461,2.220463 0.190445,0.333931 0.452168,0.631797 0.779036,0.834125 0.326868,0.202328 0.721137,0.304534 1.101955,0.252025 0.337868,-0.04659 0.653913,-0.212818 0.903392,-0.445381 0.249478,-0.232564 0.434514,-0.52909 0.560549,-0.846014 0.252071,-0.633847 0.270533,-1.333111 0.276381,-2.015216 0.02491,-2.906141 -0.117633,-5.832917 0.348065,-8.701611 0.145562,-0.896662 0.35266,-1.791078 0.733574,-2.615758 0.380914,-0.824679 0.945994,-1.580798 1.702877,-2.083111 0.722438,-0.479453 1.586263,-0.707983 2.448096,-0.80304 0.861833,-0.09506 1.731783,-0.06417 2.598837,-0.06712 3.551149,-0.01209 7.248277,-0.660035 10.093868,-2.784515 1.734622,-1.295046 3.074535,-3.097999 3.874214,-5.109608 0.799683,-2.01161 1.063983,-4.225058 0.824653,-6.376518 -0.0836,-0.751466 -0.22756,-1.500446 -0.209596,-2.256334 0.009,-0.377944 0.05909,-0.756762 0.175126,-1.116564 0.11604,-0.359802 0.29956,-0.700643 0.55656,-0.977907 0.46452,-0.501153 1.13494,-0.762589 1.80356,-0.903595 0.66862,-0.141006 1.35572,-0.17752 2.02515,-0.31463 1.14582,-0.234684 2.21753,-0.759163 3.36546,-0.983329 0.57397,-0.112083 1.16983,-0.147154 1.74269,-0.02957 0.57286,0.117586 1.12274,0.396352 1.50508,0.838865 0.29954,0.346691 0.48699,0.782147 0.57248,1.232271 0.0855,0.450125 0.0723,0.915097 0.001,1.367756 -0.14173,0.905317 -0.50794,1.757558 -0.77491,2.63415 -0.9527,3.128201 -0.62493,6.490901 -0.14799,9.725991 0.47693,3.235091 1.09582,6.506747 0.69708,9.752404 -0.2405,1.95764 -0.86403,3.889831 -1.98156,5.515042 -1.12046,1.629472 -2.74913,2.929086 -4.63166,3.534633 -1.74332,0.560765 -3.6132,0.518091 -5.444206,0.549907 -1.831009,0.03182 -3.726495,0.161108 -5.345788,1.016383 -1.207665,0.637862 -2.190135,1.650293 -2.936859,2.793852 -0.746723,1.14356 -1.270175,2.418478 -1.708595,3.711966 -0.612351,1.806646 -1.069591,3.681806 -1.133021,5.588353 -0.06343,1.906546 0.282569,3.852793 1.197231,5.526811 0.667439,1.22155 1.639633,2.286971 2.8388,2.993837 1.734939,1.02268 3.887612,1.24459 5.841998,0.75851 0.604665,-0.15039 1.206704,-0.3727 1.683483,-0.77385 0.23839,-0.20057 0.442317,-0.44478 0.580837,-0.723833 0.13852,-0.279053 0.21011,-0.593581 0.18781,-0.904325 -0.0303,-0.421846 -0.23256,-0.820113 -0.51739,-1.132755 -0.284821,-0.312642 -0.648382,-0.545152 -1.030843,-0.725688 -0.764923,-0.361073 -1.614292,-0.525943 -2.361298,-0.92276 -1.147707,-0.609674 -1.973141,-1.751112 -2.304646,-3.00771 -0.257469,-0.975957 -0.233864,-2.011499 -0.03993,-3.002042 0.19393,-0.990542 0.553698,-1.941391 0.96288,-2.864079 0.313815,-0.707641 0.659377,-1.404972 1.10154,-2.040368 0.442164,-0.635395 0.985144,-1.209637 1.640748,-1.621243 0.857372,-0.538282 1.8729,-0.777828 2.881664,-0.862876 1.00876,-0.08505 2.02323,-0.02417 3.03543,-0.0073 2.06924,0.03451 4.16381,-0.119821 6.13506,-0.749981 1.97125,-0.63016 3.82191,-1.766355 5.05641,-3.427365 0.90438,-1.216843 1.45097,-2.675212 1.71819,-4.167594 0.26722,-1.492382 0.26401,-3.022183 0.14275,-4.533443 -0.35873,-4.470813 -1.73695,-8.816965 -2.03526,-13.292216 -0.13626,-2.044148 -0.0434,-4.114734 0.43129,-6.107654 0.47474,-1.992919 1.34119,-3.909096 2.64816,-5.486735 1.255,-1.514912 2.95024,-2.716245 4.87291,-3.13258 1.33006,-0.288012 2.72017,-0.194592 4.0509,0.09034 1.33072,0.284932 2.61305,0.756797 3.88932,1.22919 1.27627,0.472394 2.55675,0.948354 3.88559,1.241957 1.32884,0.293604 2.71704,0.400621 4.05075,0.12998 2.14003,-0.434263 3.96531,-1.790834 5.99526,-2.595565 1.01498,-0.402365 2.10475,-0.668426 3.1937,-0.58931 1.08895,0.07912 2.17944,0.534217 2.87382,1.37678 0.45251,0.549074 0.71915,1.238188 0.81557,1.943134 0.0964,0.704946 0.0281,1.425893 -0.13807,2.117715 -0.33242,1.383645 -1.04315,2.640477 -1.64185,3.931422 -2.74523,5.919394 -3.13833,12.891554 -1.07587,19.082012 z"
       id="path6629"
       inkscape:connector-curvature="0"
       inkscape:path-effect="#path-effect6631"
       inkscape:original-d="m 154.0185,70.062007 c 0.0129,-1.404283 -5.1084,-19.430144 -1.2923,-9.073332 1.67304,4.540605 1.67996,-4.873564 1.81444,-9.722146 0.17377,-6.264894 1.46432,-10.898238 1.23201,-14.204585 -0.2323,-3.306347 -9.35324,1.383948 -13.06619,-0.06606 -3.71296,-1.450004 -3.36436,-0.812414 -5.04694,-1.218226 -1.68257,-0.40581 -3.01629,-2.668757 -4.52484,-4.002739 -1.50854,-1.333984 0.81242,-5.453274 1.21823,-8.179514 0.40581,-2.72624 4.75714,-1.276501 7.13532,-1.914354 2.37818,-0.637853 10.78828,17.033755 14.20258,2.95912 1.54538,-6.370446 10.33623,-1.277073 12.77241,-0.522669 2.43619,0.754404 0.23231,4.524573 0.34807,6.787256 0.11575,2.262683 -1.66941,9.041079 -0.6835,12.115913 0.98592,3.074833 8.74725,0.124087 11.29946,1.632631 2.55221,1.508543 6.09628,-1.455413 8.12639,-1.165095 2.03011,0.290318 -1.45489,5.399614 -1.1651,7.08219 0.28979,1.682576 2.14264,5.631657 2.14238,7.430254 -2.7e-4,1.798597 -6.31889,-1.339392 -8.40754,-0.991063 -2.08865,0.348329 -6.845,-2.64e-4 -10.2679,0 -3.4229,2.65e-4 -1.50801,1.856079 -2.26242,2.784515 -0.7544,0.928437 2.55274,1.043929 3.82871,1.56629 1.27597,0.522361 5.68532,0.3478 8.52758,0.522097 2.84226,0.174297 10.23772,1.285447 13.42805,0.589582 3.19032,-0.695864 -2.46376,-9.175435 -1.76789,-12.423772 0.69586,-3.248336 2.33935,-7.845497 1.52693,-10.80378 -0.81241,-2.958283 -9.53215,0.419594 -12.31693,-0.334281 -2.78478,-0.753875 -9.77166,2.910348 -6.78783,-0.226876 1.24516,-1.30917 1.50912,-5.864516 0.87073,-7.082476 -0.63838,-1.217961 -0.23177,-7.425639 -0.34806,-11.138061 -0.11629,-3.712423 -8.58532,-1.624566 -12.87838,-2.436451 -4.29306,-0.811886 -5.80081,-0.928437 -8.70161,-1.392258 -2.9008,-0.463821 -1.27598,-3.016823 -1.91436,-4.524837 l -26.96613,-27.96711 c -10.50069,0 -3.72392,1.446728 -6.44809,-3.27167 -4.45128,-6.950526 -0.33222,-2.766078 -1e-5,-8.440562 0.28979,-6.264896 1.85661,-8.034752 -1.91435,-11.13806 -2.90863,-2.39364 -7.16407,1.508015 -11.13807,1.392256 -3.56767,-0.103923 -3.94446,-1.39252 -5.917092,-2.088385 -1.97263,-0.695865 -0.579843,-3.248867 -0.870162,-4.872903 l -5.046932,-1.044194 c -1.222204,2.643512 2.64e-4,6.961024 0,10.441935 -2.65e-4,3.480908 7.541656,1.508014 11.312096,2.262417 3.77043,0.754404 4.06101,0.695865 6.09112,1.044194 2.03011,0.348327 1.16048,4.408551 1.74032,6.613223 0.57985,2.204672 -1.50801,12.181989 -2.26241,18.2733809 -0.7544,6.09139155 -1.30864,2.6908519 -1.96336,4.0366748 -0.65472,1.3458228 -2.13276,1.0662498 -3.19954,1.5997715 -1.06678,0.53352182 -2.46092,-0.7386206 -3.69178,-1.1075341 -1.23086,-0.3689135 -1.066251,-2.7075703 -1.599773,-4.0609586 -0.533522,-1.3533883 -0.902171,-7.5479045 -1.353653,-11.3214605 -0.451482,-3.773555 -8.61389,-1.969214 -12.921232,-2.953424 -4.307342,-0.98421 -2.87112,0.656052 -4.307077,0.984475 -1.435957,0.328422 -2.95316,-3.938164 -4.430137,-5.906849 -1.476977,-1.968685 0.574542,-7.219747 0.861416,-10.829223 0.286874,-3.609477 -7.383297,-2.215333 -11.075342,-3.322603 l 0.492236,4.307077 c 1.764115,-0.287401 3.527967,-0.656579 5.291553,-0.984475 1.763585,-0.327893 -1.06625,7.055139 -1.599772,10.583105 -0.533521,3.527966 1.969215,6.480861 2.953425,9.721689 0.98421,3.240827 7.876061,0.163815 11.813696,0.246119 3.937635,0.0823 5.743035,-0.410463 8.614156,-0.615297 2.871121,-0.204834 -1.148289,6.070663 -1.722832,9.1063918 -0.57454,3.0357286 1.805136,13.2081057 2.707307,19.8125552 0.902171,6.60445 2.64e-4,2.87112 0,4.307077 -2.65e-4,1.435957 -5.578427,0.656052 -8.368035,0.984475 -2.789611,0.328423 -5.086189,0.409933 -7.629681,0.615297 -2.54349,0.205363 -1.558486,-3.692045 -2.338129,-5.537671 -0.779639,-1.845626 1.3129,-7.465865 1.96895,-11.1984007 C 78.798739,-1.9519184 70.267152,0.38568008 66.32899,-0.31139164 L 66.30627,3.9297702 c 1.624565,0.6958642 4.988658,-0.2897891 4.872903,2.0883864 -0.115758,2.3781755 -1.218491,4.4090804 -0.348065,7.1353204 0.870426,2.72624 -1.566556,7.193595 2.610482,8.179513 4.177038,0.985918 10.6157,2.726769 12.53032,2.958548 1.914618,0.231778 5.10468,-1.508015 5.743062,0.696129 0.638384,2.204144 2.842262,5.16322 1.914353,6.613224 -0.927907,1.450004 -0.638382,3.712951 -2.784515,4.350803 -2.146131,0.637855 0.579842,2.030643 -6.439191,1.914356 -7.019033,-0.116287 -18.157624,-0.579843 -21.057896,-0.348065 -2.900273,0.231778 -6.616495,-1.320697 -8.701609,0.696129 -4.041101,3.908754 0.167032,9.136278 1.740321,8.527577 0.696394,-0.40634 2.900272,-0.579843 2.088385,-1.218224 -0.811884,-0.638384 -0.791579,-0.850905 -1.376028,-2.217334 -1.321058,-3.088616 0.895745,-2.790565 3.39047,-2.268733 2.494727,0.521833 0.553997,1.927548 6.87743,1.869268 6.323436,-0.05827 7.098708,1.988858 10.637627,0.88639 3.538918,-1.102469 17.017,-3.258252 17.887426,-5.578944 0.870426,-2.320694 2.204143,-5.568767 2.610482,-6.961288 0.406339,-1.392523 -0.348329,-3.596401 1.218227,-4.176773 1.566546,-0.580371 3.364356,-1.856079 4.698866,-1.740322 1.33451,0.115757 3.01629,-1.682047 4.00274,0.348064 0.98645,2.03011 3.42237,4.641124 2.95855,6.091128 -0.46382,1.450004 0.46382,3.654941 -1.39226,4.350803 -1.85608,0.695865 -2.72677,0.29032 -5.56903,2.088388 -2.84226,1.798069 -9.810685,2.597824 -10.042463,5.092019 -0.231778,2.494198 0.72171,5.685317 -0.09017,7.483385 -0.811885,1.798069 1.0827,5.002113 -1.527517,5.697978 -2.610221,0.695862 -5.16322,1.160478 -7.83145,2.088385 -2.66823,0.927907 -6.78752,0.116287 -8.005482,2.784515 -1.217959,2.668227 -3.654941,4.873162 -3.654676,8.005479 2.64e-4,3.132315 2.65e-4,6.264896 0,9.397741 -2.65e-4,3.132845 1.624566,2.204144 2.436452,3.306613 0.811886,1.102469 1.16048,-2.204672 1.740322,-3.306611 0.579843,-1.10194 0.232308,-5.801338 0.348065,-8.701611 0.115757,-2.900272 1.624565,-3.132844 2.436451,-4.698869 0.811885,-1.566025 3.364887,-0.580372 5.046933,-0.870161 1.682047,-0.289789 6.72951,-1.856608 10.093868,-2.784515 3.364358,-0.927907 3.132844,-7.657682 4.698867,-11.486126 1.56602,-3.828444 0.34833,-2.900801 0.52209,-4.350805 0.17377,-1.450004 2.55274,-0.812415 3.82871,-1.218225 1.27597,-0.405811 4.40908,-0.116286 6.61323,-0.174032 2.20414,-0.05775 1.83954,5.442906 -0.20103,5.234177 -2.44739,-0.250343 0.72339,13.270982 0.54909,19.478395 -0.1743,6.207414 -1.74925,2.962305 -1.98156,5.515042 -0.23231,2.552737 -2.65903,3.070282 -4.63166,3.534633 -1.97263,0.46435 -7.193064,1.043929 -10.789994,1.56629 -3.596931,0.522361 -3.310943,3.83706 -4.645454,6.505818 -1.334512,2.668758 -0.747676,6.474039 0.06421,11.115164 0.811885,4.641117 0.518635,2.877557 2.8388,2.993837 1.044837,0.0524 5.219013,2.00407 5.841998,0.75851 0.760415,-1.520325 0.808589,-4.885627 2.45213,-2.402008 0.83095,1.255678 -0.34608,-0.315018 -3.909531,-2.781203 -4.815739,-3.332862 -1.853723,0.417241 -2.304646,-3.00771 -0.691245,-5.250295 -2.339497,2.218438 0.922945,-5.866121 3.652773,-9.051825 -0.508961,-2.790442 2.742288,-3.661611 2.114144,-0.566483 3.944984,-0.580372 5.917094,-0.870161 1.9721,-0.289789 7.24701,-3.713524 11.19147,-4.177346 3.94447,-0.463821 1.45513,-4.872593 1.86094,-8.701037 0.40581,-3.828444 -2.035,-6.969311 -2.03526,-13.292216 -2.6e-4,-6.322906 2.73165,-9.622289 3.07945,-11.594389 0.3478,-1.9721 3.24887,-2.088651 4.87291,-3.13258 1.62403,-1.043928 15.10165,-3.410854 15.87656,2.691467 1.34927,10.625339 9.6846,-2.562499 12.06278,-1.808095 2.37817,0.754405 -1.42817,5.613566 -0.96435,7.992271 0.46382,2.378704 -0.90157,12.700567 -1.07587,19.082012 z"
       sodipodi:nodetypes="csccsscssscccssscsscsssccsscssscccccssccsssccssssssscscccsscsssssscscccssssscssscccscssscssscssscssssssssssccscssssssscssssssssssscscscc" />
    <circle
       style="opacity:1;fill:#269b00;fill-opacity:1;stroke:none;stroke-width:1.33751059;stroke-miterlimit:4;stroke-dasharray:none;stroke-opacity:1"
       id="path6645"
       cx="228.53746"
       cy="61.84898"
       r="22.238791" />
    <use
       x="0"
       y="0"
       xlink:href="#path6645"
       id="use6649"
       transform="translate(-229.0691,-0.60980988)"
       width="100%"
       height="100%" />
    <use
       x="0"
       y="0"
       xlink:href="#use6649"
       id="use6651"
       transform="translate(73.83561,74.820085)"
       width="100%"
       height="100%" />
    <path
       style="fill:#000000;stroke:#000000;stroke-width:0.26458332px;stroke-linecap:butt;stroke-linejoin:miter;stroke-opacity:1;fill-opacity:1"
       d="m 60.59552,8.7168118 c 0.07918,0.7143606 -0.121095,1.4313312 -0.389067,2.0982432 -0.267972,0.666912 -0.605803,1.306772 -0.822844,1.991954 -0.540665,1.706833 -0.295061,3.548247 -0.109452,5.329019 0.0928,0.890386 0.16932,1.786092 0.121068,2.68 -0.04825,0.893908 -0.22515,1.790581 -0.61757,2.595197 -0.463651,0.950669 -1.222917,1.748606 -2.13027,2.292162 -0.907353,0.543557 -1.958361,0.835367 -3.015278,0.876245 -2.113832,0.08176 -4.19205,-0.841257 -5.761646,-2.259474 -1.04441,-0.943682 -1.893063,-2.101976 -3.021209,-2.943769 -0.564072,-0.420897 -1.200132,-0.759479 -1.887877,-0.908942 -0.687744,-0.149463 -1.430807,-0.09957 -2.059398,0.21698 -0.460672,0.23199 -0.84481,0.597292 -1.153572,1.010456 -0.308762,0.413163 -0.546413,0.874683 -0.764928,1.341898 -0.43703,0.934429 -0.823263,1.930622 -1.565743,2.646776 -0.375241,0.361936 -0.835074,0.63978 -1.337134,0.780274 -0.502061,0.140494 -1.04607,0.140556 -1.541154,-0.02283 -0.542924,-0.179174 -1.014237,-0.550917 -1.345615,-1.016812 -0.331379,-0.465894 -0.52613,-1.022248 -0.595132,-1.589794 -0.138004,-1.135091 0.217104,-2.278908 0.728836,-3.301457 0.818136,-1.634811 2.068381,-3.073456 3.651727,-3.987223 1.583346,-0.913767 3.505813,-1.275736 5.286113,-0.860419 1.510958,0.352484 2.83903,1.223372 4.1711,2.018877 1.33207,0.795504 2.762297,1.547467 4.312272,1.616855 0.866964,0.03881 1.75208,-0.147557 2.497921,-0.59124 0.74584,-0.443682 1.343089,-1.152783 1.592278,-1.98407 0.25249,-0.842301 0.143338,-1.751826 -0.06972,-2.604956 -0.213055,-0.853129 -0.527329,-1.681086 -0.687728,-2.545663 -0.172217,-0.928279 -0.160741,-1.9021025 0.130636,-2.8001335 0.291377,-0.8980309 0.876663,-1.7149068 1.687229,-2.198997 0.876129,-0.5232464 2.004131,-0.6217074 2.940212,-0.2153325 0.468041,0.2031874 0.884377,0.5260842 1.192628,0.9326907 0.308251,0.4066065 0.5071,0.8963486 0.563313,1.4034851 z"
       id="path6736"
       inkscape:connector-curvature="0"
       inkscape:path-effect="#path-effect6738"
       inkscape:original-d="m 60.59552,8.7168118 c 1.565119,0.7072122 -0.807675,2.7265332 -1.211911,4.0901972 -0.404236,1.363664 -0.403706,7.069213 -0.605954,10.604216 -0.20225,3.535002 -7.2712,0.605691 -10.907194,0.908933 -3.635996,0.303242 -4.645392,-2.424085 -6.968484,-3.635731 -2.323095,-1.211646 -2.322566,3.332489 -3.484243,4.99913 -1.161679,1.666641 -1.918594,0.504698 -2.878288,0.757444 -0.959694,0.252745 -0.807675,-3.938973 -1.211911,-5.908063 -0.404233,-1.96909 5.958824,-3.232026 8.93784,-4.847642 2.979015,-1.615615 5.655847,2.423557 8.483372,3.635732 2.827528,1.212175 2.727063,-1.717138 4.090199,-2.57531 1.363133,-0.858172 -0.504698,-3.43401 -0.757444,-5.150619 -0.252746,-1.7166086 1.212175,-3.3330183 1.817865,-4.9991305 0.605689,-1.6661122 3.131034,1.4136309 4.696153,2.1208433 z" />
    <path
       style="fill:#000000;stroke:#000000;stroke-width:0.26458332px;stroke-linecap:butt;stroke-linejoin:miter;stroke-opacity:1;fill-opacity:1"
       d="m 22.66323,-3.924431 c 0.639312,0.6684017 1.011547,1.5659954 1.130107,2.4832873 0.118561,0.91729192 -0.0053,1.85431171 -0.262971,2.7426174 -0.515342,1.7766113 -1.545063,3.3524668 -2.320852,5.031775 -1.403591,3.0382775 -1.96875,6.4278203 -1.876453,9.7733663 0.0923,3.345547 0.827019,6.652261 1.923053,9.814524 1.036318,2.989973 2.416189,5.89706 4.42296,8.343846 2.006771,2.446786 4.681389,4.41735 7.741978,5.221518 0.990582,0.260275 2.014607,0.398548 2.98063,0.738832 0.483012,0.170143 0.950933,0.391497 1.365853,0.691647 0.41492,0.30015 0.776237,0.681519 1.018375,1.13276 0.325123,0.60589 0.423017,1.325244 0.300399,2.001833 -0.122617,0.676588 -0.460579,1.308256 -0.934222,1.806723 -0.473643,0.498467 -1.079486,0.865118 -1.731855,1.082425 -0.652368,0.217306 -1.350129,0.287444 -2.03572,0.234797 C 33.01333,47.070224 31.715411,46.481977 30.579937,45.706137 29.444464,44.930297 28.450829,43.968462 27.451546,43.023654 24.98292,40.689602 22.41854,38.401015 20.514818,35.587164 18.066946,31.969018 16.834011,27.644977 16.282051,23.311572 15.706232,18.790847 15.830661,14.192149 15.06272,9.7000683 14.764792,7.9573354 14.333434,6.236977 14.113197,4.4827323 13.89296,2.7284876 13.891129,0.913143 14.43812,-0.76813034 14.711615,-1.608767 15.122205,-2.4085912 15.679702,-3.0946425 c 0.557497,-0.6860513 1.264146,-1.2563409 2.070669,-1.6182661 0.806523,-0.3619252 1.713531,-0.5108058 2.588448,-0.3843528 0.874917,0.126453 1.713379,0.5339959 2.324411,1.1728304 z"
       id="path6740"
       inkscape:connector-curvature="0"
       inkscape:path-effect="#path-effect6742"
       inkscape:original-d="M 22.66323,-3.924431 C 19.37694,-6.5483797 22.426455,15.6467 21.209514,6.3332487 c -0.88575,-6.77878525 -1.881273,17.4809563 0.0466,19.5878903 1.927873,2.106933 5.669548,12.922062 12.164938,13.565364 4.457633,0.441483 5.293709,1.456079 5.364858,2.563239 0.07115,1.107159 -9.727317,1.330708 -11.334364,0.973912 -1.607045,-0.356799 -4.472732,-3.973248 -6.936728,-7.43649 C 18.050822,32.123922 18.306535,26.373896 16.282051,23.311572 13.757441,19.492736 14.045355,13.181163 15.06272,9.7000683 16.114785,6.1002394 25.81255,-1.4098469 22.66323,-3.924431 Z"
       sodipodi:nodetypes="ssssscssss" />
    <path
       style="fill:#000000;stroke:#000000;stroke-width:0.26458332px;stroke-linecap:butt;stroke-linejoin:miter;stroke-opacity:1;fill-opacity:1"
       d="m 123.24932,100.54197 c -2.12405,-0.0213 -4.23292,0.38619 -6.35702,0.40243 -1.06204,0.008 -2.13142,-0.0832 -3.15406,-0.36992 -1.02263,-0.28677 -1.99966,-0.775491 -2.77844,-1.497645 -1.29573,-1.201507 -1.95591,-2.976725 -2.08375,-4.739163 -0.12783,-1.762437 0.23212,-3.52553 0.72035,-5.223809 0.49701,-1.728804 1.13347,-3.428047 2.04835,-4.976844 0.91489,-1.548796 2.11853,-2.947257 3.61503,-3.945386 2.62238,-1.749061 5.90432,-2.145215 8.78374,-3.427802 1.52223,-0.678049 2.94328,-1.617234 4.06063,-2.853541 1.11735,-1.236307 1.9204,-2.780332 2.15226,-4.430533 0.20114,-1.431576 -0.0262,-2.887584 -0.32287,-4.302444 -0.29672,-1.41486 -0.66459,-2.823847 -0.74832,-4.267058 -0.0451,-0.777717 -0.006,-1.567657 0.20906,-2.316504 0.21473,-0.748847 0.61343,-1.45711 1.2057,-1.96317 0.59227,-0.50606 1.38759,-0.793829 2.16056,-0.696946 0.38649,0.04844 0.76217,0.191615 1.07615,0.42213 0.31398,0.230514 0.56468,0.54889 0.70447,0.912453 0.13634,0.35458 0.16588,0.744833 0.12013,1.121956 -0.0457,0.377123 -0.16464,0.742418 -0.31648,1.090642 -0.30368,0.696449 -0.73877,1.330056 -1.03467,2.029843 -0.55605,1.315007 -0.59112,2.797463 -0.40544,4.213075 0.18568,1.415611 0.58103,2.794318 0.85991,4.194553 0.34506,1.732511 0.50987,3.5338 0.13537,5.260188 -0.18725,0.863194 -0.51005,1.700736 -0.98844,2.443235 -0.4784,0.742499 -1.1149,1.388324 -1.87373,1.840372 -1.21954,0.726506 -2.67929,0.92028 -4.09703,0.99184 -1.41773,0.07156 -2.85495,0.03844 -4.23485,0.371559 -2.05839,0.496916 -3.85599,1.785944 -5.30211,3.332754 -1.04542,1.118206 -1.94657,2.406542 -2.40362,3.867496 -0.45704,1.460953 -0.43399,3.111791 0.28278,4.464388 0.56612,1.068306 1.53926,1.898508 2.65291,2.369217 1.11364,0.470709 2.35964,0.592629 3.55813,0.433325 2.0881,-0.27755 3.99398,-1.371111 6.07341,-1.70748 1.03972,-0.168185 2.1362,-0.13672 3.10606,0.273964 0.48493,0.205342 0.93258,0.504637 1.29001,0.891381 0.35743,0.386744 0.6227,0.862095 0.74069,1.375324 0.11393,0.495595 0.089,1.019871 -0.0526,1.508282 -0.14159,0.48841 -0.39802,0.940941 -0.72936,1.326697 -0.66268,0.771512 -1.6091,1.262241 -2.595,1.512021 -1.97179,0.49955 -4.04393,0.0896 -6.07791,0.0691 z"
       id="path6744"
       inkscape:connector-curvature="0"
       inkscape:path-effect="#path-effect6746"
       inkscape:original-d="m 123.24932,100.54197 c -1.95603,0.0363 -10.31358,1.64878 -12.28952,-1.465135 -1.95299,-3.077766 -1.36313,-5.607074 -1.3634,-9.962972 -2.6e-4,-4.355897 3.18786,-6.99155 5.66338,-8.92223 2.2915,-1.787153 5.85609,-2.285466 8.78374,-3.427802 2.92765,-1.142335 4.14219,-4.856313 6.21289,-7.284074 2.0707,-2.427761 -0.71386,-5.713267 -1.07119,-8.569502 -0.35733,-2.856235 3.57089,-2.428289 5.35594,-3.642037 1.78505,-1.213748 -0.82041,2.828029 -1.23102,4.242441 -0.4106,1.414411 0.30325,5.604821 0.45447,8.407628 0.15123,2.802808 -1.8176,6.362265 -2.7268,9.543795 -0.90919,3.181529 -5.78156,0.681434 -8.33188,1.363399 -2.55033,0.681964 -3.9132,2.044834 -5.30211,3.332754 -1.23568,1.145834 -3.06164,5.707063 -2.12084,8.331884 1.16784,3.258283 13.10405,2.347811 6.21104,2.802542 -2.43288,0.162287 11.68121,-4.006613 11.21017,0.833189 -0.22504,2.31219 -1.86347,4.27538 -9.45487,4.41612 z"
       sodipodi:nodetypes="ssccsssscccccscss" />
  </g>
  <g
     inkscape:groupmode="layer"
     id="layer3"
     inkscape:label="Layer 3"
     sodipodi:insensitive="true">
    <path
       style="display:inline;fill:none;stroke:#000000;stroke-width:3;stroke-linecap:butt;stroke-linejoin:miter;stroke-miterlimit:4;stroke-dasharray:none;stroke-opacity:1"
       d="M 28.397739,-144.12338 V 220.40058"
       id="path2320"
       inkscape:connector-curvature="0"
       inkscape:path-effect="#path-effect2322"
       inkscape:original-d="m 28.397739,-144.12338 c 2.65e-4,121.504929 2.65e-4,243.012952 0,364.52396"
       inkscape:tile-cx="9.3977373"
       inkscape:tile-cy="43.130708"
       inkscape:tile-w="0.87800954"
       inkscape:tile-h="79.504314"
       inkscape:tile-x0="8.9587325"
       inkscape:tile-y0="3.3785513" />
    <use
       style="display:inline"
       x="0"
       y="0"
       inkscape:tiled-clone-of="#path2320"
       xlink:href="#path2320"
       id="use6279"
       transform="translate(-19.000001)"
       width="100%"
       height="100%" />
    <use
       style="display:inline"
       x="0"
       y="0"
       inkscape:tiled-clone-of="#path2320"
       xlink:href="#path2320"
       transform="translate(19.000001)"
       id="use6281"
       width="100%"
       height="100%" />
    <use
       style="display:inline"
       x="0"
       y="0"
       inkscape:tiled-clone-of="#path2320"
       xlink:href="#path2320"
       transform="translate(38.000001)"
       id="use6283"
       width="100%"
       height="100%" />
    <use
       style="display:inline"
       x="0"
       y="0"
       inkscape:tiled-clone-of="#path2320"
       xlink:href="#path2320"
       transform="translate(57.000005)"
       id="use6285"
       width="100%"
       height="100%" />
    <use
       style="display:inline"
       x="0"
       y="0"
       inkscape:tiled-clone-of="#path2320"
       xlink:href="#path2320"
       transform="translate(76.000009)"
       id="use6287"
       width="100%"
       height="100%" />
    <use
       style="display:inline"
       x="0"
       y="0"
       inkscape:tiled-clone-of="#path2320"
       xlink:href="#path2320"
       transform="translate(94.999998,2.4686219e-6)"
       id="use6289"
       width="100%"
       height="100%" />
    <use
       style="display:inline"
       x="0"
       y="0"
       inkscape:tiled-clone-of="#path2320"
       xlink:href="#path2320"
       transform="translate(113.99999,2.4686219e-6)"
       id="use6291"
       width="100%"
       height="100%" />
    <use
       style="display:inline"
       x="0"
       y="0"
       inkscape:tiled-clone-of="#path2320"
       xlink:href="#path2320"
       transform="translate(133,2.4686219e-6)"
       id="use6293"
       width="100%"
       height="100%" />
    <use
       style="display:inline"
       x="0"
       y="0"
       inkscape:tiled-clone-of="#path2320"
       xlink:href="#path2320"
       transform="translate(152,2.4686219e-6)"
       id="use6295"
       width="100%"
       height="100%" />
    <use
       style="display:inline"
       x="0"
       y="0"
       inkscape:tiled-clone-of="#path2320"
       xlink:href="#path2320"
       transform="translate(171.00001)"
       id="use6297"
       width="100%"
       height="100%" />
    <use
       style="display:inline"
       x="0"
       y="0"
       inkscape:tiled-clone-of="#path2320"
       xlink:href="#path2320"
       transform="translate(190.00001)"
       id="use6299"
       width="100%"
       height="100%" />
    <use
       style="display:inline"
       x="0"
       y="0"
       inkscape:tiled-clone-of="#path2320"
       xlink:href="#path2320"
       transform="matrix(1,0,0,1.0053349,209,-0.20346583)"
       id="use6303"
       width="100%"
       height="100%" />
    <use
       style="display:inline"
       height="100%"
       width="100%"
       id="use6575"
       transform="matrix(0,1,-1.0053349,0,160.41146,-73.031863)"
       xlink:href="#path2320"
       inkscape:tiled-clone-of="#path2320"
       y="0"
       x="0" />
    <use
       style="display:inline"
       x="0"
       y="0"
       inkscape:tiled-clone-of="#path2320"
       xlink:href="#path2320"
       transform="matrix(0,1,-1.0053349,0,160.41146,-54.031846)"
       id="use6577"
       width="100%"
       height="100%" />
    <use
       style="display:inline"
       height="100%"
       width="100%"
       id="use6579"
       transform="matrix(0,1,-1.0053349,0,160.41146,-35.031857)"
       xlink:href="#path2320"
       inkscape:tiled-clone-of="#path2320"
       y="0"
       x="0" />
    <use
       style="display:inline"
       x="0"
       y="0"
       inkscape:tiled-clone-of="#path2320"
       xlink:href="#path2320"
       transform="matrix(0,1,-1.0053349,0,160.41146,-16.031861)"
       id="use6581"
       width="100%"
       height="100%" />
    <use
       style="display:inline"
       height="100%"
       width="100%"
       id="use6583"
       transform="matrix(0,1,-1.0053349,0,160.41146,2.9681366)"
       xlink:href="#path2320"
       inkscape:tiled-clone-of="#path2320"
       y="0"
       x="0" />
    <use
       x="0"
       y="0"
       inkscape:tiled-clone-of="#path2320"
       xlink:href="#path2320"
       transform="matrix(0,1,-1.0053349,0,160.41146,21.968142)"
       id="use6585"
       width="100%"
       height="100%"
       style="display:inline;stroke-width:2.99202943;stroke-miterlimit:4;stroke-dasharray:none" />
    <use
       style="display:inline"
       height="100%"
       width="100%"
       id="use6587"
       transform="matrix(0,1,-1.0053349,0,160.41146,40.968149)"
       xlink:href="#path2320"
       inkscape:tiled-clone-of="#path2320"
       y="0"
       x="0" />
    <use
       style="display:inline"
       x="0"
       y="0"
       inkscape:tiled-clone-of="#path2320"
       xlink:href="#path2320"
       transform="matrix(0,1,-1.0053349,0,160.41146,59.968122)"
       id="use6589"
       width="100%"
       height="100%" />
    <use
       style="display:inline"
       height="100%"
       width="100%"
       id="use6591"
       transform="matrix(0,1,-1.0053349,0,160.41146,97.968136)"
       xlink:href="#path2320"
       inkscape:tiled-clone-of="#path2320"
       y="0"
       x="0" />
    <use
       style="display:inline"
       x="0"
       y="0"
       inkscape:tiled-clone-of="#path2320"
       xlink:href="#path2320"
       transform="matrix(0,1,-1.0053349,0,160.41146,78.968129)"
       id="use6593"
       width="100%"
       height="100%" />
  </g>
</svg>
